<svg version="1.1" id="Layer_1" xmlns="http://www.w3.org/2000/svg" xmlns:xlink="http://www.w3.org/1999/xlink" x="0px" y="0px"
	 width="100%" viewBox="0 0 125 125" enable-background="new 0 0 125 125" xml:space="preserve">
<path fill="#D0D0D2" opacity="1.000000" stroke="none" 
	d="
M1.000000,77.000000 
	C1.000000,68.312439 1.000000,59.624874 1.322072,50.326012 
	C2.452838,46.815125 2.941648,43.777248 4.125139,41.039688 
	C9.488098,28.634472 16.738281,17.544724 28.818663,10.754472 
	C35.572803,6.958042 42.920021,4.216743 50.000000,1.000000 
	C58.687565,1.000000 67.375130,1.000000 76.704269,1.340860 
	C91.791245,5.023489 104.271317,12.020091 112.723335,24.186256 
	C118.195801,32.063530 121.644478,41.346767 126.000000,50.000000 
	C126.000000,58.687565 126.000000,67.375130 125.659119,76.704247 
	C122.884369,83.291260 120.450485,89.236717 117.740303,94.949730 
	C114.814484,87.258240 110.558586,81.108383 102.889610,78.192001 
	C97.344795,76.083420 91.620590,74.446548 85.793060,72.358612 
	C83.403214,70.422981 81.196678,68.728035 79.031975,66.609421 
	C79.071548,64.762718 79.069305,63.339695 79.224091,61.606606 
	C80.893250,57.811142 81.537811,53.368851 84.102104,51.043983 
	C89.097725,46.514786 88.571861,41.928638 86.771729,36.326904 
	C87.602867,33.663353 88.891479,31.304449 88.786850,29.009048 
	C88.380966,20.104557 84.742569,13.394397 76.661140,8.365828 
	C67.743889,2.817170 56.309132,2.185563 47.831589,10.051757 
	C37.257759,19.863070 35.567669,28.344662 41.109055,37.902382 
	C40.548717,38.341846 40.257401,38.628139 39.723003,39.223770 
	C39.683655,42.028313 39.887390,44.523525 40.143013,47.338753 
	C41.111671,48.436131 42.028439,49.213486 43.099007,50.321980 
	C44.867348,54.463146 46.481895,58.273174 48.069424,62.467422 
	C48.341145,64.598473 48.639881,66.345306 48.581169,68.085991 
	C45.854797,69.542046 43.485874,71.004242 40.724228,72.560272 
	C36.420452,73.964920 32.541630,75.383797 28.591080,76.562180 
	C22.035601,78.517555 16.489071,81.820869 12.914476,87.842461 
	C11.499454,90.226143 10.287161,92.730179 8.687236,94.969894 
	C5.927940,88.840256 3.463969,82.920128 1.000000,77.000000 
z"/>
<path fill="#4E5CA6" opacity="1.000000" stroke="none" 
	d="
M8.982563,95.179413 
	C10.287161,92.730179 11.499454,90.226143 12.914476,87.842461 
	C16.489071,81.820869 22.035601,78.517555 28.591080,76.562180 
	C32.541630,75.383797 36.420452,73.964920 40.590828,72.934311 
	C39.372543,76.146271 37.894936,79.078041 36.387192,82.069603 
	C38.965546,83.699501 41.399055,85.237831 44.020607,86.895035 
	C43.131966,88.024017 42.745018,88.821716 42.111221,89.271835 
	C37.544422,92.515114 37.747852,96.064522 40.242664,100.804596 
	C44.554253,108.996490 48.120857,117.580498 52.000000,126.000000 
	C52.000000,126.000000 51.500000,126.000000 50.992371,125.717163 
	C44.241219,123.079666 37.626705,121.400177 31.837326,118.219032 
	C22.088530,112.862259 13.855599,105.578094 8.982563,95.179413 
z"/>
<path fill="#4E5CA6" opacity="1.000000" stroke="none" 
	d="
M85.976379,72.599304 
	C91.620590,74.446548 97.344795,76.083420 102.889610,78.192001 
	C110.558586,81.108383 114.814484,87.258240 117.696014,95.287216 
	C112.696091,101.724998 107.838539,107.990448 102.136772,113.359344 
	C95.120735,119.965775 86.135017,123.277664 77.000000,126.000000 
	C77.000000,126.000000 76.500000,126.000000 76.265572,125.616035 
	C79.407860,117.705452 82.342445,109.935905 86.301949,102.729492 
	C89.438530,97.020836 90.937592,92.306091 84.699722,87.960503 
	C84.407143,87.756668 84.458809,87.058670 84.288849,86.326836 
	C86.424698,84.943680 88.576118,83.550438 90.984718,81.990646 
	C89.214424,78.671104 87.595406,75.635208 85.976379,72.599304 
z"/>
<path fill="#47704C" opacity="1.000000" stroke="none" 
	d="
M126.000000,49.531342 
	C121.644478,41.346767 118.195801,32.063530 112.723335,24.186256 
	C104.271317,12.020091 91.791245,5.023489 77.172928,1.340860 
	C93.260071,1.000000 109.520142,1.000000 126.000000,1.000000 
	C126.000000,17.020226 126.000000,33.041454 126.000000,49.531342 
z"/>
<path fill="#47704C" opacity="1.000000" stroke="none" 
	d="
M77.468658,126.000000 
	C86.135017,123.277664 95.120735,119.965775 102.136772,113.359344 
	C107.838539,107.990448 112.696091,101.724998 117.972321,95.519661 
	C120.450485,89.236717 122.884369,83.291260 125.659119,77.172897 
	C126.000000,93.260071 126.000000,109.520149 126.000000,126.000000 
	C109.979774,126.000000 93.958549,126.000000 77.468658,126.000000 
z"/>
<path fill="#47704C" opacity="1.000000" stroke="none" 
	d="
M8.687237,94.969894 
	C13.855599,105.578094 22.088530,112.862259 31.837326,118.219032 
	C37.626705,121.400177 44.241219,123.079666 50.742371,125.717163 
	C34.407330,126.000000 17.814657,126.000000 1.000000,126.000000 
	C1.000000,109.979790 1.000000,93.958549 1.000000,77.468658 
	C3.463969,82.920128 5.927940,88.840256 8.687237,94.969894 
z"/>
<path fill="#47704C" opacity="1.000000" stroke="none" 
	d="
M49.531342,1.000000 
	C42.920021,4.216743 35.572803,6.958042 28.818663,10.754472 
	C16.738281,17.544724 9.488098,28.634472 4.125139,41.039688 
	C2.941648,43.777248 2.452838,46.815125 1.322072,49.857357 
	C1.000000,33.739925 1.000000,17.479853 1.000000,1.000000 
	C17.020226,1.000000 33.041454,1.000000 49.531342,1.000000 
z"/>
<path fill="#6087C3" opacity="1.000000" stroke="none" 
	d="
M85.793060,72.358612 
	C87.595406,75.635208 89.214424,78.671104 90.984718,81.990646 
	C88.576118,83.550438 86.424698,84.943680 84.288849,86.326836 
	C84.458809,87.058670 84.407143,87.756668 84.699722,87.960503 
	C90.937592,92.306091 89.438530,97.020836 86.301949,102.729492 
	C82.342445,109.935905 79.407860,117.705452 76.015572,125.616035 
	C72.969406,126.000000 69.938812,126.000000 66.422165,125.586723 
	C66.696022,120.798103 67.455925,116.422768 68.426178,111.751831 
	C70.463356,103.317703 72.290192,95.179176 74.311058,86.726639 
	C75.644737,80.589684 76.784386,74.766731 77.982132,68.661362 
	C78.356857,67.930321 78.673500,67.481705 78.990150,67.033096 
	C81.196678,68.728035 83.403214,70.422981 85.793060,72.358612 
z"/>
<path fill="#6087C3" opacity="1.000000" stroke="none" 
	d="
M52.454109,126.000000 
	C48.120857,117.580498 44.554253,108.996490 40.242664,100.804596 
	C37.747852,96.064522 37.544422,92.515114 42.111221,89.271835 
	C42.745018,88.821716 43.131966,88.024017 44.020607,86.895035 
	C41.399055,85.237831 38.965546,83.699501 36.387192,82.069603 
	C37.894936,79.078041 39.372543,76.146271 40.983551,72.840469 
	C43.485874,71.004242 45.854797,69.542046 48.597008,68.057610 
	C48.970295,68.035370 48.912895,68.004364 48.841019,68.424065 
	C50.270493,75.201912 51.771843,81.560051 53.224205,88.316772 
	C55.129002,96.872406 57.082783,105.029449 59.063255,113.569595 
	C60.059963,117.968460 61.029984,121.984230 62.000000,126.000000 
	C58.969406,126.000000 55.938812,126.000000 52.454109,126.000000 
z"/>
<path fill="#BB6169" opacity="1.000000" stroke="none" 
	d="
M62.399994,126.000000 
	C61.029984,121.984230 60.059963,117.968460 59.277580,113.206451 
	C60.095303,105.891533 60.845066,99.330177 61.248844,92.747612 
	C61.324520,91.513885 60.016514,90.195274 59.225647,88.571243 
	C60.389046,85.750282 61.673836,83.273911 63.325020,80.817482 
	C65.166336,83.559578 66.641258,86.281731 67.755394,89.154831 
	C67.002502,90.973938 66.169456,92.676743 66.297318,94.304047 
	C66.763092,100.232162 67.549988,106.135033 68.215836,112.047424 
	C67.455925,116.422768 66.696022,120.798103 65.968056,125.586723 
	C64.933334,126.000000 63.866661,126.000000 62.399994,126.000000 
z"/>
<path fill="#F6CDA2" opacity="1.000000" stroke="none" 
	d="
M48.096443,62.083202 
	C46.481895,58.273174 44.867348,54.463146 43.111080,49.909771 
	C42.949509,46.447926 42.929657,43.729424 43.083015,41.328960 
	C43.771046,42.676247 44.285866,43.705498 44.800686,44.734749 
	C45.814320,42.204159 45.742016,39.923443 45.827106,37.648613 
	C46.157265,28.821861 48.348492,26.658504 57.115055,25.745935 
	C62.241905,25.212248 67.362053,24.461159 72.422676,23.483974 
	C78.438843,22.322273 79.035995,22.733553 79.973305,28.966022 
	C80.775665,34.301121 81.903221,39.587315 83.067749,45.870667 
	C84.527161,42.053734 85.558167,39.357227 86.589180,36.660725 
	C88.571861,41.928638 89.097725,46.514786 84.102104,51.043983 
	C81.537811,53.368851 80.893250,57.811142 78.877350,61.680397 
	C77.313492,62.827076 76.049683,63.417072 75.229774,64.383629 
	C72.203171,67.951591 68.389778,68.731194 63.837883,69.216286 
	C56.834259,69.962669 53.028660,65.092415 48.096443,62.083202 
z"/>
<path fill="#525762" opacity="1.000000" stroke="none" 
	d="
M86.771729,36.326904 
	C85.558167,39.357227 84.527161,42.053734 83.067749,45.870667 
	C81.903221,39.587315 80.775665,34.301121 79.973305,28.966022 
	C79.035995,22.733553 78.438843,22.322273 72.422676,23.483974 
	C67.362053,24.461159 62.241905,25.212248 57.115055,25.745935 
	C48.348492,26.658504 46.157265,28.821861 45.827106,37.648613 
	C45.742016,39.923443 45.814320,42.204159 44.800686,44.734749 
	C44.285866,43.705498 43.771046,42.676247 43.082451,41.022934 
	C42.398479,39.515652 41.888279,38.632435 41.378078,37.749214 
	C35.567669,28.344662 37.257759,19.863070 47.831589,10.051757 
	C56.309132,2.185563 67.743889,2.817170 76.661140,8.365828 
	C84.742569,13.394397 88.380966,20.104557 88.786850,29.009048 
	C88.891479,31.304449 87.602867,33.663353 86.771729,36.326904 
M62.147556,9.466637 
	C62.672146,10.737240 63.761353,12.073642 63.622292,13.266906 
	C63.059681,18.094612 65.733810,16.921797 69.227600,15.129542 
	C67.072884,13.245533 64.918159,11.361524 62.147556,9.466637 
M58.236507,20.965714 
	C58.293858,20.222288 58.351212,19.478865 58.408562,18.735439 
	C55.522152,18.735439 52.635746,18.735439 49.749336,18.735439 
	C49.732674,19.383976 49.716011,20.032515 49.699348,20.681051 
	C52.364010,20.916832 55.028671,21.152613 58.236507,20.965714 
M50.381542,12.869542 
	C50.137699,14.102220 49.893856,15.334896 49.650013,16.567574 
	C50.068092,16.705315 50.486168,16.843056 50.904247,16.980797 
	C51.807533,14.967848 52.710823,12.954899 53.614109,10.941949 
	C53.355591,10.689863 53.097073,10.437778 52.838554,10.185692 
	C52.010197,10.874417 51.181839,11.563144 50.381542,12.869542 
z"/>
<path fill="#F1BB80" opacity="1.000000" stroke="none" 
	d="
M48.069424,62.467422 
	C53.028660,65.092415 56.834259,69.962669 63.837883,69.216286 
	C68.389778,68.731194 72.203171,67.951591 75.229774,64.383629 
	C76.049683,63.417072 77.313492,62.827076 78.720306,61.990456 
	C79.069305,63.339695 79.071548,64.762718 79.031975,66.609421 
	C78.673500,67.481705 78.356857,67.930321 77.647202,68.732651 
	C72.500557,72.495483 67.746933,75.904602 62.738739,79.072464 
	C57.960415,75.222260 53.436653,71.613312 48.912895,68.004364 
	C48.912895,68.004364 48.970295,68.035370 48.954456,68.063751 
	C48.639881,66.345306 48.341145,64.598473 48.069424,62.467422 
z"/>
<path fill="#EBBB88" opacity="1.000000" stroke="none" 
	d="
M41.109055,37.902382 
	C41.888279,38.632435 42.398479,39.515652 42.909241,40.704899 
	C42.929657,43.729424 42.949509,46.447926 42.957283,49.578632 
	C42.028439,49.213486 41.111671,48.436131 40.269836,47.035355 
	C40.218544,43.912769 40.092316,41.413601 39.966087,38.914433 
	C40.257401,38.628139 40.548717,38.341846 41.109055,37.902382 
z"/>
<path fill="#F6CDA2" opacity="1.000000" stroke="none" 
	d="
M39.723003,39.223770 
	C40.092316,41.413601 40.218544,43.912769 40.217949,46.715336 
	C39.887390,44.523525 39.683655,42.028313 39.723003,39.223770 
z"/>
<path fill="#E5E4E5" opacity="1.000000" stroke="none" 
	d="
M62.993309,79.313721 
	C67.746933,75.904602 72.500557,72.495483 77.589111,69.015068 
	C76.784386,74.766731 75.644737,80.589684 74.039772,86.909828 
	C71.755035,87.939316 69.935608,88.471603 68.116180,89.003891 
	C66.641258,86.281731 65.166336,83.559578 63.335632,80.569504 
	C62.990284,79.972382 62.994770,79.643089 62.993309,79.313721 
z"/>
<path fill="#CDCBCF" opacity="1.000000" stroke="none" 
	d="
M67.755394,89.154831 
	C69.935608,88.471603 71.755035,87.939316 73.845749,87.223831 
	C72.290192,95.179176 70.463356,103.317703 68.426178,111.751831 
	C67.549988,106.135033 66.763092,100.232162 66.297318,94.304047 
	C66.169456,92.676743 67.002502,90.973938 67.755394,89.154831 
z"/>
<path fill="#E4E4E5" opacity="1.000000" stroke="none" 
	d="
M62.738739,79.072464 
	C62.994770,79.643089 62.990284,79.972382 62.969238,80.549576 
	C61.673836,83.273911 60.389046,85.750282 58.821259,88.587204 
	C56.783241,88.604576 55.028217,88.261383 53.273193,87.918198 
	C51.771843,81.560051 50.270493,75.201912 48.841019,68.424065 
	C53.436653,71.613312 57.960415,75.222260 62.738739,79.072464 
z"/>
<path fill="#CDCACE" opacity="1.000000" stroke="none" 
	d="
M53.224205,88.316772 
	C55.028217,88.261383 56.783241,88.604576 58.942654,88.931801 
	C60.016514,90.195274 61.324520,91.513885 61.248844,92.747612 
	C60.845066,99.330177 60.095303,105.891533 59.250893,112.823364 
	C57.082783,105.029449 55.129002,96.872406 53.224205,88.316772 
z"/>
<path fill="#525862" opacity="1.000000" stroke="none" 
	d="
M62.455498,9.472075 
	C64.918159,11.361524 67.072884,13.245533 69.227600,15.129542 
	C65.733810,16.921797 63.059681,18.094612 63.622292,13.266906 
	C63.761353,12.073642 62.672146,10.737240 62.455498,9.472075 
z"/>
<path fill="#525862" opacity="1.000000" stroke="none" 
	d="
M57.964920,21.177053 
	C55.028671,21.152613 52.364010,20.916832 49.699348,20.681051 
	C49.716011,20.032515 49.732674,19.383976 49.749336,18.735439 
	C52.635746,18.735439 55.522152,18.735439 58.408562,18.735439 
	C58.351212,19.478865 58.293858,20.222288 57.964920,21.177053 
z"/>
<path fill="#525862" opacity="1.000000" stroke="none" 
	d="
M50.367512,12.560706 
	C51.181839,11.563144 52.010197,10.874417 52.838554,10.185692 
	C53.097073,10.437778 53.355591,10.689863 53.614109,10.941949 
	C52.710823,12.954899 51.807533,14.967848 50.904247,16.980797 
	C50.486168,16.843056 50.068092,16.705315 49.650013,16.567574 
	C49.893856,15.334896 50.137699,14.102220 50.367512,12.560706 
z"/>
</svg>