<svg width="17" height="15" viewBox="0 0 17 15" fill="none" xmlns="http://www.w3.org/2000/svg">
<mask id="path-1-inside-1_1_330" fill="white">
<path fill-rule="evenodd" clip-rule="evenodd" d="M8.17918 1.40333C8.19426 1.41841 8.20922 1.43357 8.22406 1.4488L8.22457 1.4483L8.22487 1.4486C10.0993 -0.377496 13.0992 -0.362537 14.9553 1.49348C16.8113 3.3495 16.8262 6.34941 15.0001 8.22387L15.0004 8.22415L14.964 8.26061C14.9611 8.26352 14.9582 8.26643 14.9553 8.26934C14.9524 8.27224 14.9494 8.27514 14.9465 8.27804L8.22457 15L1.44871 8.22415L1.4488 8.22407C1.43357 8.20923 1.41841 8.19426 1.40333 8.17918C-0.467775 6.30808 -0.467775 3.27443 1.40333 1.40333C3.27443 -0.467775 6.30808 -0.467775 8.17918 1.40333Z"/>
</mask>
<path d="M8.22406 1.4488L7.25708 2.39084L8.21117 3.3702L9.17832 2.40373L8.22406 1.4488ZM8.17918 1.40333L7.22459 2.35792L8.17918 1.40333ZM8.22457 1.4483L9.17916 0.493704L8.22491 -0.46055L7.27031 0.493365L8.22457 1.4483ZM8.22487 1.4486L7.27028 2.4032L8.21248 3.3454L9.16691 2.41559L8.22487 1.4486ZM14.9553 1.49348L15.9099 0.538889L14.9553 1.49348ZM15.0001 8.22387L14.0332 7.28183L13.1033 8.23626L14.0455 9.17846L15.0001 8.22387ZM15.0004 8.22415L15.955 9.17875L16.9096 8.22415L15.955 7.26956L15.0004 8.22415ZM14.964 8.26061L14.0094 7.30602L14.007 7.30837L14.964 8.26061ZM14.9465 8.27804L13.9944 7.32094L13.9919 7.32345L14.9465 8.27804ZM8.22457 15L7.26997 15.9546L8.22457 16.9092L9.17916 15.9546L8.22457 15ZM1.44871 8.22415L0.496062 7.26762L-0.462419 8.22221L0.494119 9.17875L1.44871 8.22415ZM1.4488 8.22407L2.40145 9.1806L3.37254 8.21345L2.39084 7.25708L1.4488 8.22407ZM1.40333 8.17918L2.35792 7.22459L1.40333 8.17918ZM1.40333 1.40333L2.35792 2.35792L1.40333 1.40333ZM9.19105 0.506763C9.17212 0.487326 9.15302 0.467982 9.13377 0.448731L7.22459 2.35792C7.2355 2.36884 7.24633 2.37981 7.25708 2.39084L9.19105 0.506763ZM7.27031 0.493365L7.26981 0.493867L9.17832 2.40373L9.17882 2.40323L7.27031 0.493365ZM9.17947 0.49401L9.17916 0.493704L7.26997 2.40289L7.27028 2.4032L9.17947 0.49401ZM9.16691 2.41559C10.5129 1.10429 12.6677 1.11509 14.0007 2.44808L15.9099 0.538889C13.5308 -1.84016 9.68572 -1.85928 7.28283 0.481618L9.16691 2.41559ZM14.0007 2.44808C15.3337 3.78107 15.3445 5.9358 14.0332 7.28183L15.9671 9.16591C18.308 6.76302 18.2889 2.91794 15.9099 0.538889L14.0007 2.44808ZM15.955 7.26956L15.9547 7.26928L14.0455 9.17846L14.0458 9.17875L15.955 7.26956ZM15.9186 9.21521L15.955 9.17875L14.0458 7.26956L14.0094 7.30602L15.9186 9.21521ZM14.007 7.30837C14.0049 7.31055 14.0027 7.31267 14.0007 7.31474L15.9099 9.22393C15.9136 9.22019 15.9173 9.2165 15.9209 9.21285L14.007 7.30837ZM14.0007 7.31474C13.9985 7.31692 13.9964 7.31898 13.9945 7.32094L15.8986 9.23514C15.9025 9.23131 15.9062 9.22757 15.9099 9.22393L14.0007 7.31474ZM9.17916 15.9546L15.9011 9.23263L13.9919 7.32345L7.26997 14.0454L9.17916 15.9546ZM0.494119 9.17875L7.26997 15.9546L9.17916 14.0454L2.40331 7.26956L0.494119 9.17875ZM0.49615 7.26753L0.496062 7.26762L2.40136 9.18069L2.40145 9.1806L0.49615 7.26753ZM0.448731 9.13377C0.467964 9.15301 0.487308 9.1721 0.506763 9.19105L2.39084 7.25708C2.37983 7.24635 2.36885 7.23552 2.35792 7.22459L0.448731 9.13377ZM0.448731 0.448731C-1.94958 2.84704 -1.94958 6.73547 0.448731 9.13377L2.35792 7.22459C1.01403 5.88069 1.01403 3.70181 2.35792 2.35792L0.448731 0.448731ZM9.13377 0.448731C6.73547 -1.94958 2.84704 -1.94958 0.448731 0.448731L2.35792 2.35792C3.70181 1.01403 5.88069 1.01403 7.22459 2.35792L9.13377 0.448731Z" fill="black" fill-opacity="0.33" mask="url(#path-1-inside-1_1_330)"/>
</svg>
