<svg width="23" height="21" viewBox="0 0 23 21" fill="none" xmlns="http://www.w3.org/2000/svg">
<path fill-rule="evenodd" clip-rule="evenodd" d="M11.4509 1.96466C11.472 1.98577 11.4929 2.007 11.5137 2.02833L11.5144 2.02761L11.5148 2.02802C14.1391 -0.528493 18.3389 -0.507541 20.9373 2.09088C23.5358 4.6893 23.5567 8.88915 21.0002 11.5134L21.0006 11.5138L20.9411 11.5733C20.9398 11.5746 20.9386 11.5758 20.9373 11.5771C20.9361 11.5783 20.9349 11.5796 20.9336 11.5808L11.5144 21L2.02822 11.5138L2.02833 11.5137C2.007 11.4929 1.98577 11.472 1.96466 11.4509C-0.654885 8.83131 -0.654885 4.5842 1.96466 1.96466C4.5842 -0.654885 8.83131 -0.654885 11.4509 1.96466Z" fill="white"/>
</svg>
