<?xml version="1.0" encoding="UTF-8"?>
<svg version="1.1" xmlns="http://www.w3.org/2000/svg" width="34" height="34">
<path d="M0 0 C2.63402205 1.68847567 3.70556652 2.86199125 4.4921875 5.90234375 C4.95521097 8.93458284 5.21574265 11.29393315 4.3125 14.25 C4.209375 14.8275 4.10625 15.405 4 16 C5.85432087 18.27144074 5.85432087 18.27144074 8 20 C7.67 20.99 7.34 21.98 7 23 C4.50638429 21.79618552 2.31856917 20.54571278 0 19 C-2.00202777 19.29061693 -4.00395511 19.58213903 -6.00390625 19.88671875 C-9.13465017 20.06439306 -10.66546209 19.00103249 -13 17 C-15.5940636 13.97359247 -16.23362622 11.82325384 -15.9375 7.9375 C-15.29622519 4.20260274 -14.11544985 2.29077195 -11 0 C-7.14514865 -1.28495045 -3.87605312 -0.98464253 0 0 Z M-12 7 C-12.66666667 9.5 -12.66666667 9.5 -12 12 C-10.00600369 14.73251347 -8.8376027 15.83247946 -5.5 16.5 C-2.1623973 15.83247946 -0.99399631 14.73251347 1 12 C1.66666667 9.5 1.66666667 9.5 1 7 C-0.99399631 4.26748653 -2.1623973 3.16752054 -5.5 2.5 C-8.8376027 3.16752054 -10.00600369 4.26748653 -12 7 Z " fill="#FFFFFF" transform="translate(20,5)"/>
</svg>
