<svg width="19" height="24" viewBox="0 0 19 24" fill="none" xmlns="http://www.w3.org/2000/svg">
<path fill-rule="evenodd" clip-rule="evenodd" d="M14 6.28571C14 8.65285 11.9855 10.5714 9.5 10.5714C7.0145 10.5714 5 8.65285 5 6.28571C5 3.91857 7.0145 2 9.5 2C11.9855 2 14 3.91857 14 6.28571Z" fill="white"/>
<path fill-rule="evenodd" clip-rule="evenodd" d="M17 22H2C2 20.985 2 20.0194 2 19.1449C2 16.7764 4.01472 14.8571 6.5 14.8571H12.5C14.9853 14.8571 17 16.7764 17 19.1449C17 20.0194 17 20.985 17 22Z" fill="white"/>
<path fill-rule="evenodd" clip-rule="evenodd" d="M14 6.28571C14 8.65285 11.9855 10.5714 9.5 10.5714C7.0145 10.5714 5 8.65285 5 6.28571C5 3.91857 7.0145 2 9.5 2C11.9855 2 14 3.91857 14 6.28571Z" stroke="white" stroke-width="2.34856" stroke-linecap="square"/>
<path fill-rule="evenodd" clip-rule="evenodd" d="M17 22H2C2 20.985 2 20.0194 2 19.1449C2 16.7764 4.01472 14.8571 6.5 14.8571H12.5C14.9853 14.8571 17 16.7764 17 19.1449C17 20.0194 17 20.985 17 22Z" stroke="white" stroke-width="2.34856" stroke-linecap="square"/>
</svg>
