<svg width="17" height="15" viewBox="0 0 17 15" fill="none" xmlns="http://www.w3.org/2000/svg">
<path fill-rule="evenodd" clip-rule="evenodd" d="M8.17918 1.40333C8.19426 1.41841 8.20922 1.43357 8.22406 1.4488L8.22457 1.4483L8.22487 1.4486C10.0993 -0.377496 13.0992 -0.362537 14.9553 1.49348C16.8113 3.3495 16.8262 6.34941 15.0001 8.22387L15.0004 8.22415L14.964 8.26061C14.9611 8.26352 14.9582 8.26643 14.9553 8.26934C14.9524 8.27224 14.9494 8.27514 14.9465 8.27804L8.22457 15L1.44871 8.22415L1.4488 8.22407C1.43357 8.20923 1.41841 8.19426 1.40333 8.17918C-0.467775 6.30808 -0.467775 3.27443 1.40333 1.40333C3.27443 -0.467775 6.30808 -0.467775 8.17918 1.40333Z" fill="#FB5D48"/>
</svg>
