<?xml version="1.0" encoding="UTF-8"?>
<svg xmlns="http://www.w3.org/2000/svg" xmlns:xlink="http://www.w3.org/1999/xlink" width="16px" height="16px" viewBox="0 0 16 16" version="1.1">
<g id="surface1">
<path style=" stroke:none;fill-rule:nonzero;fill:rgb(0%,0%,0%);fill-opacity:1;" d="M 7.234375 0.0351562 C 4.734375 0.292969 2.542969 1.652344 1.210938 3.773438 C -0.675781 6.773438 -0.320312 10.761719 2.070312 13.359375 C 3.398438 14.804688 5.039062 15.664062 7.015625 15.945312 C 7.386719 15.996094 8.617188 15.992188 9 15.941406 C 10.945312 15.671875 12.585938 14.816406 13.914062 13.378906 C 15.003906 12.195312 15.699219 10.6875 15.945312 8.984375 C 15.996094 8.617188 15.996094 7.382812 15.945312 7.015625 C 15.757812 5.714844 15.347656 4.613281 14.664062 3.582031 C 14.375 3.144531 14.085938 2.789062 13.679688 2.378906 C 12.429688 1.117188 10.886719 0.335938 9.109375 0.0742188 C 8.726562 0.0195312 7.617188 -0.0078125 7.234375 0.0351562 Z M 9.023438 4.558594 C 9.21875 4.65625 10.792969 5.597656 10.851562 5.648438 C 10.9375 5.722656 11.007812 5.953125 10.992188 6.082031 C 10.96875 6.207031 8.917969 9.992188 8.710938 10.289062 C 8.632812 10.398438 6.734375 11.691406 6.59375 11.730469 C 6.375 11.789062 6.179688 11.667969 6.066406 11.410156 L 6 11.257812 L 6.148438 8.851562 L 6.289062 8.589844 C 6.835938 7.570312 8.421875 4.695312 8.460938 4.648438 C 8.589844 4.503906 8.835938 4.460938 9.023438 4.558594 Z M 9.023438 4.558594 "/>
<path style=" stroke:none;fill-rule:nonzero;fill:rgb(0%,0%,0%);fill-opacity:1;" d="M 8.710938 5.195312 C 8.648438 5.304688 8.539062 5.511719 8.457031 5.660156 L 8.3125 5.929688 L 9.160156 6.433594 C 9.628906 6.710938 10.011719 6.933594 10.015625 6.929688 C 10.101562 6.808594 10.496094 6.015625 10.476562 6 C 10.464844 5.988281 10.101562 5.769531 9.671875 5.515625 C 9.242188 5.261719 8.875 5.039062 8.855469 5.023438 C 8.832031 5.007812 8.785156 5.058594 8.710938 5.195312 Z M 8.710938 5.195312 "/>
<path style=" stroke:none;fill-rule:nonzero;fill:rgb(0%,0%,0%);fill-opacity:1;" d="M 7.953125 6.601562 C 7.886719 6.726562 7.578125 7.289062 7.261719 7.847656 C 6.683594 8.878906 6.589844 9.09375 6.550781 9.453125 C 6.539062 9.554688 6.492188 9.917969 6.445312 10.261719 C 6.367188 10.867188 6.367188 10.886719 6.421875 10.988281 C 6.492188 11.117188 6.660156 11.199219 6.789062 11.175781 C 6.847656 11.164062 7.078125 11 7.359375 10.773438 C 7.621094 10.5625 7.914062 10.332031 8.007812 10.257812 C 8.105469 10.183594 8.230469 10.066406 8.289062 9.992188 C 8.351562 9.917969 8.628906 9.453125 8.90625 8.957031 C 9.679688 7.578125 9.78125 7.382812 9.738281 7.351562 C 9.679688 7.304688 8.101562 6.375 8.085938 6.375 C 8.078125 6.375 8.015625 6.476562 7.953125 6.601562 Z M 7.953125 6.601562 "/>
</g>
</svg>
