<svg width="25" height="22" viewBox="0 0 25 22" fill="none" xmlns="http://www.w3.org/2000/svg">
<path d="M23.4375 9.4297H4.90625L10.5781 2.57888C10.8433 2.258 10.9709 1.84431 10.9328 1.42882C10.8948 1.01333 10.6941 0.630072 10.375 0.363364C10.0559 0.0966557 9.64454 -0.0316587 9.23137 0.00664891C8.8182 0.0449565 8.43709 0.246748 8.17187 0.567631L0.359375 9.99536C0.306814 10.0703 0.259811 10.1491 0.21875 10.2311C0.21875 10.3096 0.21875 10.3568 0.109375 10.4353C0.0385526 10.6155 0.0014705 10.8073 0 11.001C0.0014705 11.1947 0.0385526 11.3865 0.109375 11.5666C0.109375 11.6452 0.109375 11.6923 0.21875 11.7709C0.259811 11.8528 0.306814 11.9316 0.359375 12.0066L8.17187 21.4343C8.31878 21.6117 8.50275 21.7543 8.7107 21.8521C8.91864 21.9499 9.14545 22.0004 9.375 22C9.74008 22.0007 10.0939 21.8729 10.375 21.6386C10.5332 21.5067 10.664 21.3447 10.7599 21.1619C10.8557 20.9791 10.9148 20.779 10.9337 20.5732C10.9525 20.3674 10.9308 20.1599 10.8698 19.9625C10.8088 19.7652 10.7097 19.5819 10.5781 19.4231L4.90625 12.5723H23.4375C23.8519 12.5723 24.2493 12.4067 24.5424 12.1121C24.8354 11.8174 25 11.4177 25 11.001C25 10.5843 24.8354 10.1846 24.5424 9.88991C24.2493 9.59524 23.8519 9.4297 23.4375 9.4297Z" fill="black"/>
</svg>
