<?xml version="1.0" encoding="UTF-8"?>
<svg version="1.1" xmlns="http://www.w3.org/2000/svg" width="134" height="100">
<path d="M0 0 C44.22 0 88.44 0 134 0 C134 33 134 66 134 100 C89.78 100 45.56 100 0 100 C0 67 0 34 0 0 Z " fill="#605444" transform="translate(0,0)"/>
<path d="M0 0 C44.22 0 88.44 0 134 0 C134 33 134 66 134 100 C117.17 100 100.34 100 83 100 C83.33 97.69 83.66 95.38 84 93 C85.3921875 92.5978125 85.3921875 92.5978125 86.8125 92.1875 C89.91368519 91.0321565 91.06407828 90.56241534 93 88 C93.54138267 85.33410992 93.54138267 85.33410992 93.625 82.4375 C93.91928251 77.16143498 93.91928251 77.16143498 95 75 C95.16669318 71.45828022 95.16669318 71.45828022 95 68 C94.67 67.67 94.34 67.34 94 67 C93.95919217 65.00041636 93.95745644 62.99954746 94 61 C94.66 61 95.32 61 96 61 C96 60.01 96 59.02 96 58 C98.97 58 101.94 58 105 58 C105.29132813 58.6290625 105.58265625 59.258125 105.8828125 59.90625 C108.01895033 64.36661328 110.17351858 68.4260271 113.25 72.3125 C117.43793483 77.69238551 117.11193786 82.3956664 117 89 C115.515 89.495 115.515 89.495 114 90 C114.66 91.98 115.32 93.96 116 96 C118.64 96.33 121.28 96.66 124 97 C124 96.01 124 95.02 124 94 C124.66 94 125.32 94 126 94 C125.86105852 90.89548451 125.712657 87.79149165 125.5625 84.6875 C125.52318359 83.80642578 125.48386719 82.92535156 125.44335938 82.01757812 C125.40146484 81.17001953 125.35957031 80.32246094 125.31640625 79.44921875 C125.27974854 78.66893311 125.24309082 77.88864746 125.20532227 77.0847168 C125.05874737 74.80670899 125.05874737 74.80670899 124 72 C123.85854663 69.49831701 123.76687186 67.01917528 123.71875 64.515625 C123.70034058 63.78180603 123.68193115 63.04798706 123.66296387 62.29193115 C123.60428157 59.94470145 123.55149069 57.59739778 123.5 55.25 C123.43186305 52.17173832 123.35806902 49.09368076 123.28125 46.015625 C123.26767456 45.31745667 123.25409912 44.61928833 123.2401123 43.89996338 C123.13074448 39.51352304 122.69525785 35.3221394 122 31 C121.34 31 120.68 31 120 31 C118.13602457 28.90302764 117.02223273 27.05697136 116 24.4375 C114.33737101 20.38484183 111.75515887 18.58655451 107.8203125 16.828125 C100.68109487 14.10323277 93.37991974 14.56728951 85.875 14.75 C84.42710823 14.77010961 82.97918927 14.78835245 81.53125 14.8046875 C78.02025873 14.84829847 74.5103088 14.9170743 71 15 C71 13.35 71 11.7 71 10 C70.34 10 69.68 10 69 10 C68.566875 9.360625 68.13375 8.72125 67.6875 8.0625 C65.59150148 5.50072404 64.21700528 5.34778436 61 5 C59.68 7.31 58.36 9.62 57 12 C56.01 11.67 55.02 11.34 54 11 C53.67 12.65 53.34 14.3 53 16 C50.03 16.66 47.06 17.32 44 18 C44 18.66 44 19.32 44 20 C44.99 20.33 45.98 20.66 47 21 C46.67012361 23.47407292 46.42027913 24.6637767 44.4375 26.25 C40.89085382 27.34127575 37.70471601 27.12349053 34 27 C33.505 25.515 33.505 25.515 33 24 C34.65 24 36.3 24 38 24 C38.165 22.72125 38.33 21.4425 38.5 20.125 C38.63921875 19.04605469 38.63921875 19.04605469 38.78125 17.9453125 C39.0372485 15.99501656 39.0372485 15.99501656 39 14 C38.34 14 37.68 14 37 14 C37 14.66 37 15.32 37 16 C34.6875 16.6875 34.6875 16.6875 32 17 C30.1875 15.5625 30.1875 15.5625 29 14 C29 15.65 29 17.3 29 19 C26.69 19 24.38 19 22 19 C22 18.01 22 17.02 22 16 C21.34 16 20.68 16 20 16 C20 14.68 20 13.36 20 12 C18.02 12 16.04 12 14 12 C14 12.66 14 13.32 14 14 C14.639375 14.185625 15.27875 14.37125 15.9375 14.5625 C18 16 18 16 18.875 19.25 C19.00523443 23.15703293 18.24293237 25.34431655 17 29 C16.82682311 32.00832994 16.87960909 34.99022716 17 38 C18.98 38.66 20.96 39.32 23 40 C24.13955862 46.32589627 24.1142637 52.52278338 24.0625 58.9375 C24.05798828 60.00291016 24.05347656 61.06832031 24.04882812 62.16601562 C24.03711787 64.77740291 24.02071724 67.38867124 24 70 C24.66 70 25.32 70 26 70 C30.93924523 90.13918444 30.93924523 90.13918444 28.10546875 97.2421875 C27 99 27 99 25 100 C16.75 100 8.5 100 0 100 C0 67 0 34 0 0 Z " fill="#FBF3CD" transform="translate(0,0)"/>
<path d="M0 0 C6.27 0 12.54 0 19 0 C19 3 19 3 17.3125 5.0625 C14.93253486 7.05652485 12.90727233 7.97852594 10 9 C8.2144131 10.7855869 8.5381339 13.38913332 8.3125 15.8125 C8.20550781 16.87082031 8.09851562 17.92914062 7.98828125 19.01953125 C8.00014048 22.03572873 8.41132202 23.48611493 10 26 C11.65 26 13.3 26 15 26 C15 26.66 15 27.32 15 28 C13.68 28 12.36 28 11 28 C11 28.99 11 29.98 11 31 C11.66 31 12.32 31 13 31 C13 32.32 13 33.64 13 35 C13.66 35 14.32 35 15 35 C15.6496875 35.9590625 15.6496875 35.9590625 16.3125 36.9375 C18.40849852 39.49927596 19.78299472 39.65221564 23 40 C24.13955862 46.32589627 24.1142637 52.52278338 24.0625 58.9375 C24.05798828 60.00291016 24.05347656 61.06832031 24.04882812 62.16601562 C24.03711787 64.77740291 24.02071724 67.38867124 24 70 C24.66 70 25.32 70 26 70 C30.93924523 90.13918444 30.93924523 90.13918444 28.10546875 97.2421875 C27 99 27 99 25 100 C16.75 100 8.5 100 0 100 C0 67 0 34 0 0 Z " fill="#FDF4CE" transform="translate(0,0)"/>
<path d="M0 0 C1.32 0.33 2.64 0.66 4 1 C4 1.66 4 2.32 4 3 C2.02 3.99 2.02 3.99 0 5 C0 8.3 0 11.6 0 15 C2.475 15.99 2.475 15.99 5 17 C5.82200425 23.24723226 2.92551394 27.71317837 0 33 C0.99 33.33 1.98 33.66 3 34 C2.34 34 1.68 34 1 34 C1 34.99 1 35.98 1 37 C0.34 37 -0.32 37 -1 37 C-1.144375 37.598125 -1.28875 38.19625 -1.4375 38.8125 C-1.8872439 40.56150404 -2.42892341 42.28677023 -3 44 C-2.34 44 -1.68 44 -1 44 C-0.7525 43.21625 -0.505 42.4325 -0.25 41.625 C1 39 1 39 3 37.6875 C5 37 5 37 7 37 C6.01 36.505 6.01 36.505 5 36 C6.0975223 33.00675737 6.67682892 32.15389099 9.625 30.75 C10.40875 30.5025 11.1925 30.255 12 30 C12 29.01 12 28.02 12 27 C12.66 27 13.32 27 14 27 C14 28.98 14 30.96 14 33 C13.01 33.495 13.01 33.495 12 34 C11.7797719 35.88483457 11.7797719 35.88483457 11.78125 38.1015625 C11.26331978 43.83741254 8.54133194 46.52243516 4.5 50.375 C3.2982928 51.56650162 2.1002032 52.76166602 0.90625 53.9609375 C0.37322266 54.47446777 -0.15980469 54.98799805 -0.70898438 55.51708984 C-2.24244463 57.08663355 -2.24244463 57.08663355 -3 60 C-6.92795789 62.16863489 -10.39053832 62.21433256 -14.8125 62.125 C-15.97394531 62.10695312 -17.13539062 62.08890625 -18.33203125 62.0703125 C-19.65267578 62.03550781 -19.65267578 62.03550781 -21 62 C-21 61.34 -21 60.68 -21 60 C-20.34 60 -19.68 60 -19 60 C-19.33 58.68 -19.66 57.36 -20 56 C-18.68 56 -17.36 56 -16 56 C-16 55.01 -16 54.02 -16 53 C-17.65 53 -19.3 53 -21 53 C-23 47.375 -23 47.375 -23 44 C-23.88751953 44.05220703 -23.88751953 44.05220703 -24.79296875 44.10546875 C-28.58374729 44.23533229 -31.4694704 44.19488843 -35.0625 42.875 C-37 41 -37 41 -37.3125 37.8125 C-37.209375 36.884375 -37.10625 35.95625 -37 35 C-38.7015625 35.0309375 -38.7015625 35.0309375 -40.4375 35.0625 C-44 35 -44 35 -45 34 C-45.4291769 29.43874783 -45.18824851 25.2012918 -43.875 20.8125 C-42.91849435 16.64486822 -43.14626457 14.80015763 -45 11 C-45.66 10.67 -46.32 10.34 -47 10 C-47 9.34 -47 8.68 -47 8 C-45.02 7.67 -43.04 7.34 -41 7 C-40.67 7.99 -40.34 8.98 -40 10 C-40.33 10.66 -40.66 11.32 -41 12 C-40.34 12 -39.68 12 -39 12 C-39 12.99 -39 13.98 -39 15 C-38.21625 14.814375 -37.4325 14.62875 -36.625 14.4375 C-34 14 -34 14 -32 15 C-32 13.35 -32 11.7 -32 10 C-31.01 10.33 -30.02 10.66 -29 11 C-29 11.66 -29 12.32 -29 13 C-27.35 12.67 -25.7 12.34 -24 12 C-24 11.34 -24 10.68 -24 10 C-23.34 10 -22.68 10 -22 10 C-20.75 16.625 -20.75 16.625 -23 20 C-25.125 20.6875 -25.125 20.6875 -27 21 C-27 21.66 -27 22.32 -27 23 C-20.93735778 22.33735914 -20.93735778 22.33735914 -15 21 C-15 19.68 -15 18.36 -15 17 C-15.66 16.67 -16.32 16.34 -17 16 C-17 15.34 -17 14.68 -17 14 C-13.86501708 12.14223235 -11.62528568 11.79859524 -8 12 C-8 10.35 -8 8.7 -8 7 C-7.34 6.67 -6.68 6.34 -6 6 C-6 6.66 -6 7.32 -6 8 C-3.38472619 5.63379989 -1.73559438 3.057952 0 0 Z " fill="#544839" transform="translate(61,4)"/>
<path d="M0 0 C2.475 0.495 2.475 0.495 5 1 C6.65 6.28 8.3 11.56 10 17 C10.33 17 10.66 17 11 17 C10.34 13.04 9.68 9.08 9 5 C9.99 4.34 10.98 3.68 12 3 C15.65952031 5.43968021 15.65255774 6.95767321 17 11 C16.67 11.66 16.34 12.32 16 13 C16.66 13 17.32 13 18 13 C18.029729 14.27846802 18.029729 14.27846802 18.06005859 15.58276367 C18.13839504 18.76058324 18.22509665 21.93803582 18.31738281 25.11547852 C18.35554288 26.48778581 18.39041796 27.86018871 18.421875 29.23266602 C18.46780682 31.2113229 18.52673637 33.18966442 18.5859375 35.16796875 C18.6173584 36.35672607 18.6487793 37.5454834 18.68115234 38.77026367 C18.99310958 41.93020414 19.78906432 44.09855015 21 47 C21.22705078 49.31176758 21.22705078 49.31176758 21.1953125 51.64453125 C21.18886719 52.48564453 21.18242188 53.32675781 21.17578125 54.19335938 C21.15902344 55.05767578 21.14226562 55.92199219 21.125 56.8125 C21.11597656 57.69615234 21.10695312 58.57980469 21.09765625 59.49023438 C21.07419637 61.66027359 21.03832865 63.83017247 21 66 C20.34 66 19.68 66 19 66 C19 66.99 19 67.98 19 69 C12.9453125 69.1953125 12.9453125 69.1953125 11 69 C9 67 9 67 8.875 64.375 C8.91625 63.59125 8.9575 62.8075 9 62 C9.99 61.505 9.99 61.505 11 61 C11.29255618 52.51587087 9.72557015 47.76429177 4.46484375 41.1015625 C2.24784255 37.92090478 1.1823782 34.67850995 0 31 C-2.97 30.67 -5.94 30.34 -9 30 C-9 30.99 -9 31.98 -9 33 C-9.66 33 -10.32 33 -11 33 C-10.67 34.010625 -10.34 35.02125 -10 36.0625 C-8.95176793 39.83005876 -8.57138148 43.07099693 -9 47 C-11 50.4375 -11 50.4375 -13 53 C-13.33 51.68 -13.66 50.36 -14 49 C-15.65 48.67 -17.3 48.34 -19 48 C-19.02710123 45.4374282 -19.04688771 42.87514635 -19.0625 40.3125 C-19.07087891 39.59126953 -19.07925781 38.87003906 -19.08789062 38.12695312 C-19.10543632 34.28444618 -18.93524221 30.73360474 -18 27 C-17.01 27 -16.02 27 -15 27 C-14.7421875 26.43925781 -14.484375 25.87851562 -14.21875 25.30078125 C-12.85676439 22.72959688 -11.23526945 20.52202563 -9.5 18.1875 C-6.56328679 14.06153929 -5.14772965 10.87785101 -4 6 C-1.61904762 1.61904762 -1.61904762 1.61904762 0 0 Z " fill="#5E5344" transform="translate(105,28)"/>
<path d="M0 0 C0.33 0.66 0.66 1.32 1 2 C1.66 2 2.32 2 3 2 C3 3.65 3 5.3 3 7 C4.26070313 6.84273437 5.52140625 6.68546875 6.8203125 6.5234375 C34.71849507 3.45758326 34.71849507 3.45758326 45 11 C49.01053818 14.66860952 50.30581915 17.91745745 52 23 C52.66 23 53.32 23 54 23 C55.65776005 28.06792735 56.23859717 32.29465204 56.1953125 37.68359375 C56.1924826 38.38396255 56.18965271 39.08433136 56.18673706 39.80592346 C56.17564885 42.0166317 56.15056703 44.22691671 56.125 46.4375 C56.11495546 47.94725972 56.1058322 49.45702588 56.09765625 50.96679688 C56.07574714 54.64466597 56.04129758 58.3222916 56 62 C55.67 62 55.34 62 55 62 C55 52.43 55 42.86 55 33 C54.34 33 53.68 33 53 33 C52.48504285 30.94017141 51.97313036 28.88244533 51.5 26.8125 C51.15890376 24.99436859 51.15890376 24.99436859 50 24 C49.505 25.485 49.505 25.485 49 27 C48.505 25.515 48.505 25.515 48 24 C46.86267574 27.40401948 47.16010043 29.77456664 47.9375 33.25 C48.13214844 34.14203125 48.32679687 35.0340625 48.52734375 35.953125 C48.68332031 36.62859375 48.83929688 37.3040625 49 38 C48.01 37.67 47.02 37.34 46 37 C44.83203125 34.1640625 44.83203125 34.1640625 43.8125 30.625 C43.46832031 29.46226563 43.12414062 28.29953125 42.76953125 27.1015625 C42 24 42 24 42 21 C37.89840812 21.05603831 37.89840812 21.05603831 34 22 C32.53478379 24.52623485 31.79538598 26.28063984 31 29 C29.58472963 32.53817592 28.12338198 35.81492703 26 39 C24.68 39 23.36 39 22 39 C21.67 39.66 21.34 40.32 21 41 C21 40.34 21 39.68 21 39 C20.01 39.495 20.01 39.495 19 40 C18.87625 41.175625 18.87625 41.175625 18.75 42.375 C18 45 18 45 15.0625 46.75 C14.051875 47.1625 13.04125 47.575 12 48 C11.01 48.495 11.01 48.495 10 49 C10 48.34 10 47.68 10 47 C8.68 46.34 7.36 45.68 6 45 C5.97314062 42.85423363 5.95366912 40.70837355 5.9375 38.5625 C5.92589844 37.36753906 5.91429688 36.17257813 5.90234375 34.94140625 C6 32 6 32 7 31 C7.15349136 28.52642763 7.23159885 26.09995481 7.25 23.625 C7.270625 22.93921875 7.29125 22.2534375 7.3125 21.546875 C7.41079426 17.55342555 7.41079426 17.55342555 5.484375 14.2109375 C4.99453125 13.81132812 4.5046875 13.41171875 4 13 C4 12.01 4 11.02 4 10 C3.34 10 2.68 10 2 10 C0.68373308 6.38026598 0 3.90432869 0 0 Z " fill="#89806E" transform="translate(68,8)"/>
<path d="M0 0 C14.85 0 29.7 0 45 0 C45 1.65 45 3.3 45 5 C44.01 5 43.02 5 42 5 C40.68 7.31 39.36 9.62 38 12 C37.01 11.67 36.02 11.34 35 11 C34.67 12.65 34.34 14.3 34 16 C31.03 16.66 28.06 17.32 25 18 C25 18.66 25 19.32 25 20 C25.99 20.33 26.98 20.66 28 21 C27.67012361 23.47407292 27.42027913 24.6637767 25.4375 26.25 C21.89085382 27.34127575 18.70471601 27.12349053 15 27 C14.67 26.01 14.34 25.02 14 24 C15.65 24 17.3 24 19 24 C19.165 22.72125 19.33 21.4425 19.5 20.125 C19.63921875 19.04605469 19.63921875 19.04605469 19.78125 17.9453125 C20.0372485 15.99501656 20.0372485 15.99501656 20 14 C19.34 14 18.68 14 18 14 C18 14.66 18 15.32 18 16 C15.6875 16.6875 15.6875 16.6875 13 17 C11.1875 15.5625 11.1875 15.5625 10 14 C10 15.65 10 17.3 10 19 C7.69 19 5.38 19 3 19 C3 18.01 3 17.02 3 16 C2.34 16 1.68 16 1 16 C1 14.68 1 13.36 1 12 C-0.98 12 -2.96 12 -5 12 C-5 12.66 -5 13.32 -5 14 C-4.360625 14.185625 -3.72125 14.37125 -3.0625 14.5625 C-1 16 -1 16 -0.125 19.25 C0.00534021 23.16020616 -0.66574145 25.36785172 -2 29 C-2.4447376 31.66359151 -2.72189267 34.31162911 -3 37 C-3.33 36.34 -3.66 35.68 -4 35 C-4.66 35 -5.32 35 -6 35 C-6 33.68 -6 32.36 -6 31 C-6.66 31 -7.32 31 -8 31 C-8 30.01 -8 29.02 -8 28 C-6.68 28 -5.36 28 -4 28 C-4 27.34 -4 26.68 -4 26 C-4.763125 26.0825 -5.52625 26.165 -6.3125 26.25 C-9 26 -9 26 -10.67578125 24.36328125 C-12.39585993 21.29352431 -12.21120734 19.4159529 -11.875 15.9375 C-11.78992188 14.89464844 -11.70484375 13.85179687 -11.6171875 12.77734375 C-10.95797888 9.81090497 -10.41341507 8.77862103 -8 7 C-7.319375 6.835 -6.63875 6.67 -5.9375 6.5 C-3.60312807 6.12732749 -3.60312807 6.12732749 -2 3 C-1.34 3 -0.68 3 0 3 C0 2.01 0 1.02 0 0 Z " fill="#AEA482" transform="translate(19,0)"/>
<path d="M0 0 C1.65 0 3.3 0 5 0 C5 0.66 5 1.32 5 2 C11.27 1.67 17.54 1.34 24 1 C28.83940605 10.6788121 28 14.82954118 28 27 C17.44 27 6.88 27 -4 27 C-4 21.76901097 -3.89654583 18.81783083 -2.5625 14.0625 C-1.30600821 9.3506558 -0.4663325 4.84985795 0 0 Z " fill="#F9F1CB" transform="translate(44,73)"/>
<path d="M0 0 C0.66 0 1.32 0 2 0 C1.97679688 0.56847656 1.95359375 1.13695312 1.9296875 1.72265625 C1.80808312 6.92558648 2.32276508 11.07312243 4 16 C4.639375 16.103125 5.27875 16.20625 5.9375 16.3125 C6.618125 16.539375 7.29875 16.76625 8 17 C8.33 17.99 8.66 18.98 9 20 C9.66 19.67 10.32 19.34 11 19 C11.47853579 23.88106506 11.74336366 26.95929087 8.8125 31.0625 C5.81073891 33.13037986 4.54966001 33.50709429 1 33 C0.67 35.31 0.34 37.62 0 40 C-3.63 40 -7.26 40 -11 40 C-11.03738281 38.94941406 -11.07476562 37.89882812 -11.11328125 36.81640625 C-11.44925321 29.10741024 -11.79805359 22.14280354 -15 15 C-15.99 14.34 -16.98 13.68 -18 13 C-16.68 13 -15.36 13 -14 13 C-14 10.69 -14 8.38 -14 6 C-11.03 6 -8.06 6 -5 6 C-4.34 4.68 -3.68 3.36 -3 2 C-2.01 2 -1.02 2 0 2 C0 1.34 0 0.68 0 0 Z " fill="#6C5E4A" transform="translate(83,60)"/>
<path d="M0 0 C2.14745711 1.8334686 3.38198419 3.62056499 5 6 C5 6.66 5 7.32 5 8 C5.99 8 6.98 8 8 8 C8 8.66 8 9.32 8 10 C9.32 10.33 10.64 10.66 12 11 C12 12.32 12 13.64 12 15 C13.2375 14.2575 13.2375 14.2575 14.5 13.5 C18.75488188 11.67647919 21.42308671 11.76326311 26 12 C25.67 14.31 25.34 16.62 25 19 C24.34 19 23.68 19 23 19 C23 19.99 23 20.98 23 22 C22.01 22 21.02 22 20 22 C20 23.65 20 25.3 20 27 C16.56257082 27.05802698 13.12526747 27.09360486 9.6875 27.125 C8.71103516 27.14175781 7.73457031 27.15851562 6.72851562 27.17578125 C5.32182617 27.18544922 5.32182617 27.18544922 3.88671875 27.1953125 C3.02264404 27.20578613 2.15856934 27.21625977 1.26831055 27.22705078 C-1 27 -1 27 -4 25 C-4.1875 21.875 -4.1875 21.875 -4 19 C-5.7015625 19.0309375 -5.7015625 19.0309375 -7.4375 19.0625 C-11 19 -11 19 -12 18 C-12.47543537 12.74809762 -12.29497606 7.81944974 -10 3 C-6.9731132 -0.243093 -4.33496461 -0.79621799 0 0 Z " fill="#1A1718" transform="translate(28,20)"/>
<path d="M0 0 C0.66 0 1.32 0 2 0 C2 1.98 2 3.96 2 6 C1.34 6.33 0.68 6.66 0 7 C-0.2202281 8.88483457 -0.2202281 8.88483457 -0.21875 11.1015625 C-0.73668022 16.83741254 -3.45866806 19.52243516 -7.5 23.375 C-8.7017072 24.56650162 -9.8997968 25.76166602 -11.09375 26.9609375 C-11.89329102 27.73123291 -11.89329102 27.73123291 -12.70898438 28.51708984 C-14.24244463 30.08663355 -14.24244463 30.08663355 -15 33 C-18.92795789 35.16863489 -22.39053832 35.21433256 -26.8125 35.125 C-27.97394531 35.10695312 -29.13539062 35.08890625 -30.33203125 35.0703125 C-31.65267578 35.03550781 -31.65267578 35.03550781 -33 35 C-33 34.34 -33 33.68 -33 33 C-32.34 33 -31.68 33 -31 33 C-31.33 31.68 -31.66 30.36 -32 29 C-30.68 29 -29.36 29 -28 29 C-28 28.01 -28 27.02 -28 26 C-29.65 26 -31.3 26 -33 26 C-35 20.375 -35 20.375 -35 17 C-37.97 17 -40.94 17 -44 17 C-44 16.67 -44 16.34 -44 16 C-37.73 16 -31.46 16 -25 16 C-25 14.35 -25 12.7 -25 11 C-24.01 11 -23.02 11 -22 11 C-21.67 10.01 -21.34 9.02 -21 8 C-21.54723683 11.37462715 -22.0549 13.08235 -24 16 C-23.01 16 -22.02 16 -21 16 C-21 15.34 -21 14.68 -21 14 C-20.34 14 -19.68 14 -19 14 C-19 14.99 -19 15.98 -19 17 C-18.34 17 -17.68 17 -17 17 C-16.7834375 16.1028125 -16.7834375 16.1028125 -16.5625 15.1875 C-16.1127561 13.43849596 -15.57107659 11.71322977 -15 10 C-14.34 10 -13.68 10 -13 10 C-13.57584432 12.38564077 -14.22227595 14.66682784 -15 17 C-14.34 17 -13.68 17 -13 17 C-12.7525 16.21625 -12.505 15.4325 -12.25 14.625 C-11 12 -11 12 -9 10.6875 C-7 10 -7 10 -5 10 C-5.66 9.67 -6.32 9.34 -7 9 C-5.9024777 6.00675737 -5.32317108 5.15389099 -2.375 3.75 C-1.59125 3.5025 -0.8075 3.255 0 3 C0 2.01 0 1.02 0 0 Z M-11 6 C-9 7 -9 7 -9 7 Z M-12 7 C-11.67 7.99 -11.34 8.98 -11 10 C-11.66 10 -12.32 10 -13 10 C-12.67 9.01 -12.34 8.02 -12 7 Z " fill="#4E4231" transform="translate(73,31)"/>
<path d="M0 0 C1.98 0 3.96 0 6 0 C6 1.98 6 3.96 6 6 C10.55491614 8.20399168 15.02906176 8.58846263 20 9 C20.66 11.64 21.32 14.28 22 17 C23.65 17.33 25.3 17.66 27 18 C27 18.99 27 19.98 27 21 C25.68 21 24.36 21 23 21 C23.33 22.32 23.66 23.64 24 25 C23.01 25.33 22.02 25.66 21 26 C20.34 25.34 19.68 24.68 19 24 C15.91652174 23.83318891 15.91652174 23.83318891 13 24 C13 25.65 13 27.3 13 29 C11.68 29.33 10.36 29.66 9 30 C9 32.31 9 34.62 9 37 C9.66 37 10.32 37 11 37 C11 38.65 11 40.3 11 42 C11.66 42 12.32 42 13 42 C13.33 41.01 13.66 40.02 14 39 C13.67 44.28 13.34 49.56 13 55 C14.32 55 15.64 55 17 55 C17 56.98 17 58.96 17 61 C13.7 61 10.4 61 7 61 C7.495 60.401875 7.99 59.80375 8.5 59.1875 C11.75281048 52.27527773 10.16912971 45.04967157 8 38 C7.92596322 35.66784156 7.90484114 33.33139212 8 31 C7.34 31 6.68 31 6 31 C5.67 21.1 5.34 11.2 5 1 C3.35 1 1.7 1 0 1 C0 0.67 0 0.34 0 0 Z " fill="#5F4B2C" transform="translate(18,39)"/>
<path d="M0 0 C0.33 0.66 0.66 1.32 1 2 C1.66 2 2.32 2 3 2 C3 3.65 3 5.3 3 7 C4.26070313 6.84273437 5.52140625 6.68546875 6.8203125 6.5234375 C34.71849507 3.45758326 34.71849507 3.45758326 45 11 C46.36344033 12.30253062 47.70529025 13.62913085 49 15 C48.67 15.66 48.34 16.32 48 17 C47.278125 16.175 46.55625 15.35 45.8125 14.5 C43.28321918 11.82146549 43.28321918 11.82146549 40.375 11.5 C37.52590493 12.09980949 36.98751671 12.93604034 35 15 C28.37447409 18.71029451 23.33920054 18.03763491 16.125 16.3125 C13.70332305 15.71399972 13.70332305 15.71399972 11 18 C11 17.01 11 16.02 11 15 C10.34 15 9.68 15 9 15 C9.33 16.98 9.66 18.96 10 21 C9.34 20.01 8.68 19.02 8 18 C7.29875 17.175 6.5975 16.35 5.875 15.5 C4 13 4 13 4 10 C3.34 10 2.68 10 2 10 C0.68373308 6.38026598 0 3.90432869 0 0 Z " fill="#BCAF95" transform="translate(68,8)"/>
<path d="M0 0 C0.99 0 1.98 0 3 0 C3 0.66 3 1.32 3 2 C3.99 2 4.98 2 6 2 C5.67 4.97 5.34 7.94 5 11 C7.97 11.33 10.94 11.66 14 12 C13.67 12.99 13.34 13.98 13 15 C12.01 14.67 11.02 14.34 10 14 C10 15.65 10 17.3 10 19 C7.69 19 5.38 19 3 19 C3 18.01 3 17.02 3 16 C2.34 16 1.68 16 1 16 C1 14.68 1 13.36 1 12 C-0.98 12 -2.96 12 -5 12 C-5 12.66 -5 13.32 -5 14 C-4.360625 14.185625 -3.72125 14.37125 -3.0625 14.5625 C-1 16 -1 16 -0.125 19.25 C0.00534021 23.16020616 -0.66574145 25.36785172 -2 29 C-2.4447376 31.66359151 -2.72189267 34.31162911 -3 37 C-3.33 36.34 -3.66 35.68 -4 35 C-4.66 35 -5.32 35 -6 35 C-6 33.68 -6 32.36 -6 31 C-6.66 31 -7.32 31 -8 31 C-8 30.01 -8 29.02 -8 28 C-6.68 28 -5.36 28 -4 28 C-4 27.34 -4 26.68 -4 26 C-4.763125 26.0825 -5.52625 26.165 -6.3125 26.25 C-9 26 -9 26 -10.67578125 24.36328125 C-12.39585993 21.29352431 -12.21120734 19.4159529 -11.875 15.9375 C-11.78992188 14.89464844 -11.70484375 13.85179687 -11.6171875 12.77734375 C-10.95797888 9.81090497 -10.41341507 8.77862103 -8 7 C-7.319375 6.835 -6.63875 6.67 -5.9375 6.5 C-3.60312807 6.12732749 -3.60312807 6.12732749 -2 3 C-1.34 3 -0.68 3 0 3 C0 2.01 0 1.02 0 0 Z " fill="#96A763" transform="translate(19,0)"/>
<path d="M0 0 C0.66 0 1.32 0 2 0 C1.67 1.65 1.34 3.3 1 5 C-0.32 5 -1.64 5 -3 5 C-3 5.99 -3 6.98 -3 8 C-2.34 8 -1.68 8 -1 8 C-1.66 10.64 -2.32 13.28 -3 16 C-4.32 15.67 -5.64 15.34 -7 15 C-7 15.66 -7 16.32 -7 17 C-6.34 17.33 -5.68 17.66 -5 18 C-5.99 18 -6.98 18 -8 18 C-8.66 19.98 -9.32 21.96 -10 24 C-12.31 23.67 -14.62 23.34 -17 23 C-17.2475 23.969375 -17.495 24.93875 -17.75 25.9375 C-18.1625 26.948125 -18.575 27.95875 -19 29 C-21.125 29.875 -21.125 29.875 -23 30 C-22.34 28.35 -21.68 26.7 -21 25 C-22.65 24.67 -24.3 24.34 -26 24 C-26 23.34 -26 22.68 -26 22 C-24.68 22 -23.36 22 -22 22 C-22 21.34 -22 20.68 -22 20 C-24.31 20 -26.62 20 -29 20 C-28.67 19.34 -28.34 18.68 -28 18 C-33.28 17.67 -38.56 17.34 -44 17 C-44 16.67 -44 16.34 -44 16 C-37.73 16 -31.46 16 -25 16 C-25 14.35 -25 12.7 -25 11 C-24.01 11 -23.02 11 -22 11 C-21.67 10.01 -21.34 9.02 -21 8 C-21.54723683 11.37462715 -22.0549 13.08235 -24 16 C-23.01 16 -22.02 16 -21 16 C-21 15.34 -21 14.68 -21 14 C-20.34 14 -19.68 14 -19 14 C-19 14.99 -19 15.98 -19 17 C-18.34 17 -17.68 17 -17 17 C-16.7834375 16.1028125 -16.7834375 16.1028125 -16.5625 15.1875 C-16.1127561 13.43849596 -15.57107659 11.71322977 -15 10 C-14.34 10 -13.68 10 -13 10 C-13.57584432 12.38564077 -14.22227595 14.66682784 -15 17 C-14.34 17 -13.68 17 -13 17 C-12.7525 16.21625 -12.505 15.4325 -12.25 14.625 C-11 12 -11 12 -9 10.6875 C-7 10 -7 10 -5 10 C-5.66 9.67 -6.32 9.34 -7 9 C-5.9024777 6.00675737 -5.32317108 5.15389099 -2.375 3.75 C-1.59125 3.5025 -0.8075 3.255 0 3 C0 2.01 0 1.02 0 0 Z M-11 6 C-9 7 -9 7 -9 7 Z M-12 7 C-11.67 7.99 -11.34 8.98 -11 10 C-11.66 10 -12.32 10 -13 10 C-12.67 9.01 -12.34 8.02 -12 7 Z " fill="#3A2D1B" transform="translate(73,31)"/>
<path d="M0 0 C1.32 0 2.64 0 4 0 C4 1.65 4 3.3 4 5 C3.01 5 2.02 5 1 5 C-0.32 7.31 -1.64 9.62 -3 12 C-3.99 11.67 -4.98 11.34 -6 11 C-6.33 12.65 -6.66 14.3 -7 16 C-9.97 16.66 -12.94 17.32 -16 18 C-16 18.66 -16 19.32 -16 20 C-15.01 20.33 -14.02 20.66 -13 21 C-13.32987639 23.47407292 -13.57972087 24.6637767 -15.5625 26.25 C-19.10914618 27.34127575 -22.29528399 27.12349053 -26 27 C-26.33 26.01 -26.66 25.02 -27 24 C-25.35 24 -23.7 24 -22 24 C-21.835 22.72125 -21.67 21.4425 -21.5 20.125 C-21.4071875 19.40570312 -21.314375 18.68640625 -21.21875 17.9453125 C-20.9627515 15.99501656 -20.9627515 15.99501656 -21 14 C-21.66 14 -22.32 14 -23 14 C-23.33 14.66 -23.66 15.32 -24 16 C-24 14.68 -24 13.36 -24 12 C-24.66 11.67 -25.32 11.34 -26 11 C-24.35254404 9.35254404 -22.44664549 9.8290384 -20.1875 9.8125 C-19.31480469 9.79832031 -18.44210938 9.78414062 -17.54296875 9.76953125 C-14.89080915 10.00989594 -13.27535001 10.65812691 -11 12 C-11.33 11.67 -11.66 11.34 -12 11 C-12.14115161 8.32941149 -12.04247107 5.67567762 -12 3 C-8.04 3.33 -4.08 3.66 0 4 C0 2.68 0 1.36 0 0 Z " fill="#99CB55" transform="translate(60,0)"/>
<path d="M0 0 C2.2798997 2.2798997 2.93842768 3.86932037 3.11352539 7.0847168 C3.10828857 7.86500244 3.10305176 8.64528809 3.09765625 9.44921875 C3.09443359 10.29677734 3.09121094 11.14433594 3.08789062 12.01757812 C3.07951172 12.89865234 3.07113281 13.77972656 3.0625 14.6875 C3.05798828 15.58017578 3.05347656 16.47285156 3.04882812 17.39257812 C3.03704983 19.59511987 3.02060164 21.79752599 3 24 C2.34 24 1.68 24 1 24 C1 24.99 1 25.98 1 27 C-5.0546875 27.1953125 -5.0546875 27.1953125 -7 27 C-9 25 -9 25 -9.125 22.375 C-9.08375 21.59125 -9.0425 20.8075 -9 20 C-8.34 19.67 -7.68 19.34 -7 19 C-7 15.04 -7 11.08 -7 7 C-4 11 -4 11 -3 13 C-2.86722656 12.31292969 -2.73445313 11.62585938 -2.59765625 10.91796875 C-2.42105469 10.01691406 -2.24445313 9.11585937 -2.0625 8.1875 C-1.88847656 7.29417969 -1.71445313 6.40085937 -1.53515625 5.48046875 C-1 3 -1 3 0 0 Z " fill="#695E4E" transform="translate(123,70)"/>
<path d="M0 0 C0 0.66 0 1.32 0 2 C-0.71027344 2.06058594 -1.42054687 2.12117188 -2.15234375 2.18359375 C-3.07144531 2.26738281 -3.99054688 2.35117187 -4.9375 2.4375 C-6.31228516 2.55931641 -6.31228516 2.55931641 -7.71484375 2.68359375 C-9.96159732 2.76044976 -9.96159732 2.76044976 -11 4 C-8.36 4.33 -5.72 4.66 -3 5 C-3 6.32 -3 7.64 -3 9 C-4.258125 9.185625 -5.51625 9.37125 -6.8125 9.5625 C-7.87404297 9.71912109 -7.87404297 9.71912109 -8.95703125 9.87890625 C-11 10 -11 10 -14 9 C-14.99 9.66 -15.98 10.32 -17 11 C-17 10.01 -17 9.02 -17 8 C-17.66 8 -18.32 8 -19 8 C-18.67 9.98 -18.34 11.96 -18 14 C-18.66 13.01 -19.32 12.02 -20 11 C-20.70125 10.175 -21.4025 9.35 -22.125 8.5 C-24 6 -24 6 -24 3 C-24.66 3 -25.32 3 -26 3 C-26 2.34 -26 1.68 -26 1 C-17.31126982 0.10884819 -8.73139464 -0.11624638 0 0 Z " fill="#B9A585" transform="translate(96,15)"/>
<path d="M0 0 C2.72869407 0.03287583 5.2966618 0.56397771 8 1 C8 1.66 8 2.32 8 3 C9.32 3.33 10.64 3.66 12 4 C10.35 4 8.7 4 7 4 C7.061875 5.2375 7.12375 6.475 7.1875 7.75 C7.21619744 13.747766 5.62969341 19.2669714 4 25 C3.34 25 2.68 25 2 25 C1.67 25.99 1.34 26.98 1 28 C0.90912109 27.04287109 0.90912109 27.04287109 0.81640625 26.06640625 C0.73261719 25.24011719 0.64882813 24.41382812 0.5625 23.5625 C0.44068359 22.32693359 0.44068359 22.32693359 0.31640625 21.06640625 C0.21069185 19.01337975 0.21069185 19.01337975 -1 18 C-1.0728714 14.98950039 -0.99617197 11.99107437 -0.9375 8.98046875 C-0.8758592 6.08791 -0.8758592 6.08791 -1.625 3.73828125 C-1.74875 3.16464844 -1.8725 2.59101562 -2 2 C-1.34 1.34 -0.68 0.68 0 0 Z " fill="#4A3E2E" transform="translate(37,68)"/>
<path d="M0 0 C0.33 0 0.66 0 1 0 C1.33 3.96 1.66 7.92 2 12 C3.32 12.33 4.64 12.66 6 13 C7.125 17.75 7.125 17.75 6 20 C5.01 20 4.02 20 3 20 C3 22.31 3 24.62 3 27 C3.66 27 4.32 27 5 27 C5 28.65 5 30.3 5 32 C5.66 32 6.32 32 7 32 C7.33 31.01 7.66 30.02 8 29 C7.67 34.28 7.34 39.56 7 45 C8.32 45 9.64 45 11 45 C11 46.98 11 48.96 11 51 C7.7 51 4.4 51 1 51 C1.495 50.401875 1.99 49.80375 2.5 49.1875 C5.75281048 42.27527773 4.16912971 35.04967157 2 28 C1.92596322 25.66784156 1.90484114 23.33139212 2 21 C1.34 21 0.68 21 0 21 C0 14.07 0 7.14 0 0 Z " fill="#A0947A" transform="translate(24,49)"/>
<path d="M0 0 C0 1.65 0 3.3 0 5 C-0.66 5 -1.32 5 -2 5 C-2 5.99 -2 6.98 -2 8 C-2.99 8 -3.98 8 -5 8 C-5 9.65 -5 11.3 -5 13 C-11.93 13 -18.86 13 -26 13 C-26.66 11.68 -27.32 10.36 -28 9 C-26.783125 9.2475 -25.56625 9.495 -24.3125 9.75 C-20.82644258 10.21030688 -20.31898483 10.22996581 -17.3125 8.0625 C-16.1678125 7.0415625 -16.1678125 7.0415625 -15 6 C-12.1875 5.75 -12.1875 5.75 -10 6 C-10 5.34 -10 4.68 -10 4 C-9.34 4 -8.68 4 -8 4 C-7.67 3.01 -7.34 2.02 -7 1 C-4.52260646 0.09162237 -2.66420516 0 0 0 Z " fill="#090605" transform="translate(53,34)"/>
<path d="M0 0 C11.55 0 23.1 0 35 0 C35.495 1.485 35.495 1.485 36 3 C31.05 2.67 26.1 2.34 21 2 C21 2.66 21 3.32 21 4 C20.34 4 19.68 4 19 4 C19 4.99 19 5.98 19 7 C17.68 7 16.36 7 15 7 C15 7.66 15 8.32 15 9 C10.95886635 9.84581867 8.00336856 10.00084214 4 9 C3.34 9 2.68 9 2 9 C2 8.34 2 7.68 2 7 C2.66 7 3.32 7 4 7 C4 6.01 4 5.02 4 4 C4.99 3.34 5.98 2.68 7 2 C4.69 1.67 2.38 1.34 0 1 C0 0.67 0 0.34 0 0 Z " fill="#C2B39A" transform="translate(23,0)"/>
<path d="M0 0 C3.88024303 0.5203179 5.04514665 2.30855893 7.55078125 5.2421875 C8.73607422 6.59957031 8.73607422 6.59957031 9.9453125 7.984375 C11.73828125 10.3671875 11.73828125 10.3671875 11.73828125 12.3671875 C12.39828125 12.3671875 13.05828125 12.3671875 13.73828125 12.3671875 C15.3960413 17.43511485 15.97687842 21.66183954 15.93359375 27.05078125 C15.93076385 27.75115005 15.92793396 28.45151886 15.92501831 29.17311096 C15.9139301 31.3838192 15.88884828 33.59410421 15.86328125 35.8046875 C15.85323671 37.31444722 15.84411345 38.82421338 15.8359375 40.33398438 C15.81402839 44.01185347 15.77957883 47.6894791 15.73828125 51.3671875 C15.40828125 51.3671875 15.07828125 51.3671875 14.73828125 51.3671875 C14.73828125 41.7971875 14.73828125 32.2271875 14.73828125 22.3671875 C14.07828125 22.3671875 13.41828125 22.3671875 12.73828125 22.3671875 C12.2233241 20.30735891 11.71141161 18.24963283 11.23828125 16.1796875 C10.89718501 14.36155609 10.89718501 14.36155609 9.73828125 13.3671875 C9.40828125 14.3571875 9.07828125 15.3471875 8.73828125 16.3671875 C8.73828125 15.0471875 8.73828125 13.7271875 8.73828125 12.3671875 C7.74828125 12.0371875 6.75828125 11.7071875 5.73828125 11.3671875 C5.73828125 10.3771875 5.73828125 9.3871875 5.73828125 8.3671875 C2.66854053 6.55040218 0.8200348 6.17345172 -2.69921875 6.6796875 C-3.87097656 6.84210937 -3.87097656 6.84210937 -5.06640625 7.0078125 C-7.47931494 7.40280823 -9.87639432 7.82856586 -12.26171875 8.3671875 C-9.50072259 5.40167311 -6.77978699 3.36392893 -3.26171875 1.3671875 C-2.26171875 0.3671875 -2.26171875 0.3671875 0 0 Z " fill="#958D7A" transform="translate(108.26171875,18.6328125)"/>
<path d="M0 0 C-0.33 1.32 -0.66 2.64 -1 4 C-0.34 4 0.32 4 1 4 C1 4.99 1 5.98 1 7 C1.78375 6.814375 2.5675 6.62875 3.375 6.4375 C6 6 6 6 8 7 C8 5.35 8 3.7 8 2 C8.99 2.33 9.98 2.66 11 3 C11 3.66 11 4.32 11 5 C12.65 4.67 14.3 4.34 16 4 C16 3.34 16 2.68 16 2 C16.66 2 17.32 2 18 2 C19.25 8.625 19.25 8.625 17 12 C13.875 13.1875 13.875 13.1875 11 14 C10.46375 13.175 9.9275 12.35 9.375 11.5 C7.21381861 8.70746794 7.21381861 8.70746794 3.9375 8.5625 C0.81748195 8.81395562 0.81748195 8.81395562 -2 11 C-2.19335938 10.43410156 -2.38671875 9.86820313 -2.5859375 9.28515625 C-2.84632812 8.55167969 -3.10671875 7.81820313 -3.375 7.0625 C-3.75785156 5.96615234 -3.75785156 5.96615234 -4.1484375 4.84765625 C-4.85271413 2.81317884 -4.85271413 2.81317884 -7 2 C-7 1.34 -7 0.68 -7 0 C-3.86650268 -1.04449911 -3.01031744 -0.93423645 0 0 Z " fill="#82A94F" transform="translate(21,12)"/>
<path d="M0 0 C0.66 0 1.32 0 2 0 C4.87822878 14.52398524 4.87822878 14.52398524 2 21 C-1 22.9375 -1 22.9375 -4 24 C-4.66 24.33 -5.32 24.66 -6 25 C-6 24.34 -6 23.68 -6 23 C-7.32 22.34 -8.64 21.68 -10 21 C-10 16.71 -10 12.42 -10 8 C-9.34 7.67 -8.68 7.34 -8 7 C-8 9.31 -8 11.62 -8 14 C-7.2575 14.28875 -6.515 14.5775 -5.75 14.875 C-3.43260203 15.82302644 -1.22082885 16.84845911 1 18 C0.83628906 17.48953125 0.67257813 16.9790625 0.50390625 16.453125 C-0.16698481 13.18708172 -0.0933456 10.0813253 -0.0625 6.75 C-0.05347656 5.48671875 -0.04445313 4.2234375 -0.03515625 2.921875 C-0.02355469 1.95765625 -0.01195313 0.9934375 0 0 Z " fill="#756A5A" transform="translate(84,32)"/>
<path d="M0 0 C0.33 0.66 0.66 1.32 1 2 C0.67 2.99 0.34 3.98 0 5 C0.66 5 1.32 5 2 5 C1.47731534 7.76276177 0.89130413 10.3260876 0 13 C1.65 12.34 3.3 11.68 5 11 C5 9.35 5 7.7 5 6 C6.32 6.33 7.64 6.66 9 7 C10.03022718 12.15113591 9.79336059 15.11807394 8 20 C7.5552624 22.66359151 7.27810733 25.31162911 7 28 C6.67 27.34 6.34 26.68 6 26 C5.34 26 4.68 26 4 26 C4 24.68 4 23.36 4 22 C3.34 22 2.68 22 2 22 C2 21.01 2 20.02 2 19 C3.32 19 4.64 19 6 19 C6 18.34 6 17.68 6 17 C5.236875 17.0825 4.47375 17.165 3.6875 17.25 C1 17 1 17 -0.68359375 15.37109375 C-2.41545332 12.2516909 -2.14409441 10.32936421 -1.75 6.8125 C-1.64171875 5.74644531 -1.5334375 4.68039062 -1.421875 3.58203125 C-1 1 -1 1 0 0 Z " fill="#9AC357" transform="translate(9,9)"/>
<path d="M0 0 C1.532705 2.77115241 2.29719786 5.00494267 2.59765625 8.15234375 C2.67693359 8.92900391 2.75621094 9.70566406 2.83789062 10.50585938 C2.91201172 11.30830078 2.98613281 12.11074219 3.0625 12.9375 C3.21803686 14.53014601 3.3755363 16.12260178 3.53515625 17.71484375 C3.61016357 18.46338623 3.6851709 19.21192871 3.76245117 19.9831543 C3.98843274 22.135034 3.98843274 22.135034 4.5546875 24.765625 C5.03398694 27.17053095 5.09904971 29.3636695 5.0625 31.8125 C5.05347656 32.60269531 5.04445313 33.39289063 5.03515625 34.20703125 C5.02355469 34.79871094 5.01195312 35.39039063 5 36 C4.67 36 4.34 36 4 36 C4 34.02 4 32.04 4 30 C2.68 30 1.36 30 0 30 C0 25.71 0 21.42 0 17 C-0.66 17 -1.32 17 -2 17 C-2 15.35 -2 13.7 -2 12 C-2.66 12 -3.32 12 -4 12 C-4.1875 8.625 -4.1875 8.625 -4 5 C-3.01 4.34 -2.02 3.68 -1 3 C-0.67 2.01 -0.34 1.02 0 0 Z " fill="#776952" transform="translate(31,64)"/>
<path d="M0 0 C1.32 0 2.64 0 4 0 C4 1.65 4 3.3 4 5 C3.01 5 2.02 5 1 5 C-0.32 7.31 -1.64 9.62 -3 12 C-3.99 11.67 -4.98 11.34 -6 11 C-6.33 12.65 -6.66 14.3 -7 16 C-8.65 16 -10.3 16 -12 16 C-11.34 15.67 -10.68 15.34 -10 15 C-10.33 14.505 -10.66 14.01 -11 13.5 C-12.43636358 9.90909106 -12.12851462 6.85543873 -12 3 C-8.04 3.33 -4.08 3.66 0 4 C0 2.68 0 1.36 0 0 Z " fill="#70674C" transform="translate(60,0)"/>
<path d="M0 0 C2.64 0 5.28 0 8 0 C7.67 0.66 7.34 1.32 7 2 C9.97 2.495 9.97 2.495 13 3 C13 3.66 13 4.32 13 5 C11.68 5 10.36 5 9 5 C9 5.66 9 6.32 9 7 C10.65 7.33 12.3 7.66 14 8 C13.34 9.98 12.68 11.96 12 14 C10.35 14.33 8.7 14.66 7 15 C7 13.02 7 11.04 7 9 C5.35 9 3.7 9 2 9 C0 3.375 0 3.375 0 0 Z " fill="#594B3A" transform="translate(38,48)"/>
<path d="M0 0 C3 2 3 2 3.73046875 4.8203125 C3.88128906 5.91085938 4.03210938 7.00140625 4.1875 8.125 C4.34605469 9.22070312 4.50460938 10.31640625 4.66796875 11.4453125 C4.77753906 12.28835937 4.88710937 13.13140625 5 14 C1.3359375 16.0390625 1.3359375 16.0390625 -1.6875 15.6875 C-4 15 -4 15 -5 14 C-5.1245486 12.35769636 -5.17568524 10.70947724 -5.1875 9.0625 C-5.20167969 8.16660156 -5.21585938 7.27070313 -5.23046875 6.34765625 C-5 4 -5 4 -3 2 C-2.01 2 -1.02 2 0 2 C0 1.34 0 0.68 0 0 Z " fill="#668A30" transform="translate(65,5)"/>
<path d="M0 0 C1.32 0.33 2.64 0.66 4 1 C4 1.66 4 2.32 4 3 C2.02 3.99 2.02 3.99 0 5 C-0.05437607 6.58294782 -0.09296271 8.16644256 -0.125 9.75 C-0.15980469 11.07257812 -0.15980469 11.07257812 -0.1953125 12.421875 C0.00860498 15.1135858 0.63448279 16.69904974 2 19 C0.02 19 -1.96 19 -4 19 C-4.33 18.01 -4.66 17.02 -5 16 C-5.78375 15.87625 -6.5675 15.7525 -7.375 15.625 C-10 15 -10 15 -12 13 C-10.68 13 -9.36 13 -8 13 C-8 11.02 -8 9.04 -8 7 C-7.34 6.67 -6.68 6.34 -6 6 C-6 6.66 -6 7.32 -6 8 C-3.38472619 5.63379989 -1.73559438 3.057952 0 0 Z " fill="#2E3620" transform="translate(61,4)"/>
<path d="M0 0 C2 1 2 1 2 1 Z M-1 1 C-0.67 1.99 -0.34 2.98 0 4 C-0.66 4 -1.32 4 -2 4 C-1.67 3.01 -1.34 2.02 -1 1 Z M-11 2 C-10.3125 3.75 -10.3125 3.75 -10 6 C-11.4375 8.25 -11.4375 8.25 -13 10 C-12.01 10 -11.02 10 -10 10 C-10 9.34 -10 8.68 -10 8 C-9.34 8 -8.68 8 -8 8 C-8 8.99 -8 9.98 -8 11 C-7.34 11 -6.68 11 -6 11 C-5.855625 10.401875 -5.71125 9.80375 -5.5625 9.1875 C-5.1127561 7.43849596 -4.57107659 5.71322977 -4 4 C-3.34 4 -2.68 4 -2 4 C-2.66 7.3 -3.32 10.6 -4 14 C-4.66 14 -5.32 14 -6 14 C-6 14.66 -6 15.32 -6 16 C-6.66 16 -7.32 16 -8 16 C-8 15.34 -8 14.68 -8 14 C-8.99 14.33 -9.98 14.66 -11 15 C-13.3406065 14.72230092 -15.67624308 14.39460023 -18 14 C-17.67 13.34 -17.34 12.68 -17 12 C-22.28 11.67 -27.56 11.34 -33 11 C-33 10.67 -33 10.34 -33 10 C-26.73 10 -20.46 10 -14 10 C-14 8.35 -14 6.7 -14 5 C-13.01 5 -12.02 5 -11 5 C-11 4.01 -11 3.02 -11 2 Z " fill="#473B2C" transform="translate(62,37)"/>
<path d="M0 0 C3.125 -0.1875 3.125 -0.1875 6 0 C5.51171875 6.0546875 5.51171875 6.0546875 5 8 C1.2632157 10.49118953 -0.74451819 10.2065226 -5.1875 10.125 C-6.45980469 10.10695313 -7.73210938 10.08890625 -9.04296875 10.0703125 C-10.50669922 10.03550781 -10.50669922 10.03550781 -12 10 C-12.33 9.01 -12.66 8.02 -13 7 C-11.02 7 -9.04 7 -7 7 C-7 6.34 -7 5.68 -7 5 C-6.21625 4.731875 -5.4325 4.46375 -4.625 4.1875 C-1.71885077 3.15185568 -1.71885077 3.15185568 0 0 Z " fill="#3A3126" transform="translate(63,64)"/>
<path d="M0 0 C2.31 0 4.62 0 7 0 C7.33 0.99 7.66 1.98 8 3 C8.66 2.67 9.32 2.34 10 2 C10 4.97 10 7.94 10 11 C9.01 11.495 9.01 11.495 8 12 C8 11.34 8 10.68 8 10 C7.34 10 6.68 10 6 10 C6 10.66 6 11.32 6 12 C4.02 12 2.04 12 0 12 C0 8.04 0 4.08 0 0 Z " fill="#776953" transform="translate(84,77)"/>
<path d="M0 0 C1.9375 0.75 1.9375 0.75 4 2 C4.75 4.125 4.75 4.125 5 6 C4.34 6 3.68 6 3 6 C3.33 6.99 3.66 7.98 4 9 C2.6645075 13.00647751 0.47234113 13.75744636 -3 16 C-3.33 16.66 -3.66 17.32 -4 18 C-3.01 18.33 -2.02 18.66 -1 19 C-2.3921875 19.3403125 -2.3921875 19.3403125 -3.8125 19.6875 C-7.54469713 21.22428705 -8.1724155 22.52758945 -10 26 C-10.66 26 -11.32 26 -12 26 C-11.42415568 23.61435923 -10.77772405 21.33317216 -10 19 C-9.34 19 -8.68 19 -8 19 C-8 17.35 -8 15.7 -8 14 C-7.34 14 -6.68 14 -6 14 C-6 13.34 -6 12.68 -6 12 C-5.01 11.67 -4.02 11.34 -3 11 C-1.77479736 7.99152582 -1.77479736 7.99152582 -1 5 C-0.01 5 0.98 5 2 5 C2 4.01 2 3.02 2 2 C1.34 2 0.68 2 0 2 C0 1.34 0 0.68 0 0 Z " fill="#514536" transform="translate(70,22)"/>
<path d="M0 0 C1.04892238 1.63631892 2.04906703 3.30485863 3 5 C3.33 5.33 3.66 5.66 4 6 C4.04092937 8.33297433 4.04241723 10.66705225 4 13 C3.01 12.67 2.02 12.34 1 12 C1 11.34 1 10.68 1 10 C1.66 10 2.32 10 3 10 C1.13433512 6.37206002 1.13433512 6.37206002 -2 4 C-2 4.66 -2 5.32 -2 6 C-1.34 6 -0.68 6 0 6 C0 6.99 0 7.98 0 9 C-0.99 9 -1.98 9 -3 9 C-3.33 10.98 -3.66 12.96 -4 15 C-5.32 15.33 -6.64 15.66 -8 16 C-8 16.66 -8 17.32 -8 18 C-8.99 18.33 -9.98 18.66 -11 19 C-10.50074534 16.40387575 -9.75826178 14.54674083 -8.5 12.1875 C-6.80010938 9.01383145 -6.80010938 9.01383145 -6.5625 5.25 C-6 2 -6 2 -4.0625 0.5625 C-2 0 -2 0 0 0 Z " fill="#665A49" transform="translate(72,18)"/>
<path d="M0 0 C3.63 0 7.26 0 11 0 C11.66 2.64 12.32 5.28 13 8 C14.65 8.33 16.3 8.66 18 9 C18 9.99 18 10.98 18 12 C16.54052295 11.93993922 15.08220728 11.8511311 13.625 11.75 C12.40683594 11.68039063 12.40683594 11.68039063 11.1640625 11.609375 C9 11 9 11 7.7109375 8.953125 C7.35902344 7.98632812 7.35902344 7.98632812 7 7 C6.01 7.33 5.02 7.66 4 8 C3.01 7.34 2.02 6.68 1 6 C1 5.34 1 4.68 1 4 C1.66 4 2.32 4 3 4 C3 3.01 3 2.02 3 1 C2.01 0.67 1.02 0.34 0 0 Z " fill="#685B44" transform="translate(27,48)"/>
<path d="M0 0 C1.98 0.66 3.96 1.32 6 2 C4.68 7.61 3.36 13.22 2 19 C0.68 18.67 -0.64 18.34 -2 18 C-2.05397335 15.5622037 -2.09365616 13.12560315 -2.125 10.6875 C-2.14175781 9.99720703 -2.15851563 9.30691406 -2.17578125 8.59570312 C-2.21217794 4.82864604 -2.14378864 3.21568296 0 0 Z " fill="#392F22" transform="translate(88,57)"/>
<path d="M0 0 C1.32 0 2.64 0 4 0 C4.33 4.29 4.66 8.58 5 13 C6.98 13 8.96 13 11 13 C11 12.34 11 11.68 11 11 C11.66 11 12.32 11 13 11 C12.42655063 13.86724686 12.1385485 14.8614515 10 17 C7.36766208 17.8563027 4.70453182 18.38929927 2 19 C-0.48164847 15.2775273 -0.03921153 13.864122 0.4375 9.5 C1.00521977 4.67227646 1.00521977 4.67227646 0 0 Z " fill="#594B3A" transform="translate(79,76)"/>
<path d="M0 0 C0.33 0.66 0.66 1.32 1 2 C1.99 2 2.98 2 4 2 C4 2.66 4 3.32 4 4 C5.32 4.33 6.64 4.66 8 5 C8 6.32 8 7.64 8 9 C8.825 8.505 9.65 8.01 10.5 7.5 C14.75488188 5.67647919 17.42308671 5.76326311 22 6 C22 7.65 22 9.3 22 11 C21.67 10.01 21.34 9.02 21 8 C16.26276391 8.99013803 16.26276391 8.99013803 12.375 11.625 C11 13 11 13 8.3125 13.1875 C7.549375 13.125625 6.78625 13.06375 6 13 C6 11.35 6 9.7 6 8 C3.03 7.505 3.03 7.505 0 7 C0 6.34 0 5.68 0 5 C-0.66 4.67 -1.32 4.34 -2 4 C-1.34 2.68 -0.68 1.36 0 0 Z " fill="#27231F" transform="translate(32,26)"/>
<path d="M0 0 C0.33 1.65 0.66 3.3 1 5 C-3.455 5.495 -3.455 5.495 -8 6 C-8 8.64 -8 11.28 -8 14 C-8.99 14 -9.98 14 -11 14 C-10.34 15.65 -9.68 17.3 -9 19 C-9.99 18.67 -10.98 18.34 -12 18 C-12.21364445 12.65888877 -12.35033457 7.93570259 -10 3 C-6.91823223 -0.30189404 -4.38618223 -0.29905788 0 0 Z " fill="#191B1B" transform="translate(28,20)"/>
<path d="M0 0 C-0.66 0.66 -1.32 1.32 -2 2 C-1.34 4.31 -0.68 6.62 0 9 C-1.32 9.33 -2.64 9.66 -4 10 C-4 10.99 -4 11.98 -4 13 C-2.35 13 -0.7 13 1 13 C0.67 13.66 0.34 14.32 0 15 C-1.98 15 -3.96 15 -6 15 C-6.33 13.35 -6.66 11.7 -7 10 C-8.32 10.33 -9.64 10.66 -11 11 C-10.67 10.34 -10.34 9.68 -10 9 C-9.01 9 -8.02 9 -7 9 C-7 7.68 -7 6.36 -7 5 C-7.66 4.67 -8.32 4.34 -9 4 C-9 3.34 -9 2.68 -9 2 C-5.86501708 0.14223235 -3.62528568 -0.20140476 0 0 Z " fill="#5D5344" transform="translate(53,16)"/>
<path d="M0 0 C0.33 1.32 0.66 2.64 1 4 C0.01 4.495 0.01 4.495 -1 5 C-1.020625 6.299375 -1.04125 7.59875 -1.0625 8.9375 C-1.56530337 14.72904988 -4.72306356 17.92342889 -8.48046875 22.12890625 C-11.55107916 24.40925103 -13.26129417 24.38415067 -17 24 C-17 24.99 -17 25.98 -17 27 C-17.99 27 -18.98 27 -20 27 C-19.49396008 24.83125748 -19.00016187 23.00032373 -18 21 C-15.69 21 -13.38 21 -11 21 C-8.7986134 17.19572508 -8.7986134 17.19572508 -8 13 C-7.01 13 -6.02 13 -5 13 C-4.01 10.69 -3.02 8.38 -2 6 C-2.66 6 -3.32 6 -4 6 C-4 5.01 -4 4.02 -4 3 C-2.68 3 -1.36 3 0 3 C0 2.01 0 1.02 0 0 Z " fill="#544228" transform="translate(74,33)"/>
<path d="M0 0 C4.29 0 8.58 0 13 0 C13.33 1.32 13.66 2.64 14 4 C16.31 4.33 18.62 4.66 21 5 C17.51856576 7.32095616 15.11096446 7.49514472 11 8 C9.66082739 8.30903983 8.32346746 8.62942911 7 9 C7 7.68 7 6.36 7 5 C5.35 5 3.7 5 2 5 C2.33 4.01 2.66 3.02 3 2 C2.01 2 1.02 2 0 2 C0 1.34 0 0.68 0 0 Z " fill="#43412F" transform="translate(33,26)"/>
<path d="M0 0 C11.55 0 23.1 0 35 0 C35.495 1.485 35.495 1.485 36 3 C23.81454544 3.21517374 12.01603879 3.29658079 0 1 C0 0.67 0 0.34 0 0 Z M12 3 C12.66 3 13.32 3 14 3 C14 3.66 14 4.32 14 5 C13.34 5 12.68 5 12 5 C12 4.34 12 3.68 12 3 Z " fill="#D8CCAA" transform="translate(23,0)"/>
<path d="M0 0 C0.33 0 0.66 0 1 0 C0.96744792 1.98567708 0.93489583 3.97135417 0.90234375 5.95703125 C0.91736783 8.20305461 0.91736783 8.20305461 2 11 C2.66 11.33 3.32 11.66 4 12 C4 13.65 4 15.3 4 17 C1.69 17 -0.62 17 -3 17 C-3 12.38 -3 7.76 -3 3 C-2.01 3 -1.02 3 0 3 C0 2.01 0 1.02 0 0 Z " fill="#8C7D64" transform="translate(75,83)"/>
<path d="M0 0 C0.66 0 1.32 0 2 0 C1.67 1.65 1.34 3.3 1 5 C-0.32 5 -1.64 5 -3 5 C-3 5.99 -3 6.98 -3 8 C-2.34 8 -1.68 8 -1 8 C-1.66 10.64 -2.32 13.28 -3 16 C-4.32 15.67 -5.64 15.34 -7 15 C-7 15.66 -7 16.32 -7 17 C-6.34 17.33 -5.68 17.66 -5 18 C-5.99 18 -6.98 18 -8 18 C-8.66 19.98 -9.32 21.96 -10 24 C-10.33 24 -10.66 24 -11 24 C-11 21.36 -11 18.72 -11 16 C-10.01 16 -9.02 16 -8 16 C-8 15.34 -8 14.68 -8 14 C-6.68 14 -5.36 14 -4 14 C-4.34786708 12.02463255 -4.34786708 12.02463255 -5 10 C-5.66 9.67 -6.32 9.34 -7 9 C-5.9024777 6.00675737 -5.32317108 5.15389099 -2.375 3.75 C-1.59125 3.5025 -0.8075 3.255 0 3 C0 2.01 0 1.02 0 0 Z " fill="#48371E" transform="translate(73,31)"/>
<path d="M0 0 C1.98 0 3.96 0 6 0 C6 1.98 6 3.96 6 6 C6.804375 6.226875 7.60875 6.45375 8.4375 6.6875 C9.283125 7.120625 10.12875 7.55375 11 8 C11.8125 10.625 11.8125 10.625 12 13 C10.68 13.33 9.36 13.66 8 14 C8.33 15.32 8.66 16.64 9 18 C10.65 18.33 12.3 18.66 14 19 C14 19.66 14 20.32 14 21 C12.68 20.67 11.36 20.34 10 20 C10 20.66 10 21.32 10 22 C9.34 22 8.68 22 8 22 C7.86722656 21.15695313 7.73445313 20.31390625 7.59765625 19.4453125 C7.42105469 18.34960938 7.24445312 17.25390625 7.0625 16.125 C6.88847656 15.03445312 6.71445312 13.94390625 6.53515625 12.8203125 C6.14448841 10.06178454 6.14448841 10.06178454 5 8 C4.95977609 5.6670134 4.95679753 3.33293334 5 1 C3.35 1 1.7 1 0 1 C0 0.67 0 0.34 0 0 Z " fill="#635235" transform="translate(18,39)"/>
<path d="M0 0 C3.3 0.33 6.6 0.66 10 1 C8.515 2.485 8.515 2.485 7 4 C6.34 4 5.68 4 5 4 C5 4.99 5 5.98 5 7 C4.34 7 3.68 7 3 7 C3 7.66 3 8.32 3 9 C4.98 8.67 6.96 8.34 9 8 C9.99 9.485 9.99 9.485 11 11 C9.375 12.125 9.375 12.125 7 13 C3.75 12.125 3.75 12.125 1 11 C1.66 8.03 2.32 5.06 3 2 C2.01 2 1.02 2 0 2 C0 1.34 0 0.68 0 0 Z " fill="#B3A487" transform="translate(22,0)"/>
<path d="M0 0 C0.66 0 1.32 0 2 0 C2 0.99 2 1.98 2 3 C2.99 2.67 3.98 2.34 5 2 C4.71926927 4.14729141 4.42511501 6.29283193 4.125 8.4375 C3.96257812 9.63246094 3.80015625 10.82742187 3.6328125 12.05859375 C3.31957031 13.51458984 3.31957031 13.51458984 3 15 C2.01 15.495 2.01 15.495 1 16 C0.3291288 14.3767313 -0.33657029 12.75132422 -1 11.125 C-1.37125 10.22007813 -1.7425 9.31515625 -2.125 8.3828125 C-3 6 -3 6 -3 4 C-2.01 4 -1.02 4 0 4 C0 2.68 0 1.36 0 0 Z " fill="#403428" transform="translate(118,68)"/>
<path d="M0 0 C2.64 0 5.28 0 8 0 C8.33 0.66 8.66 1.32 9 2 C7.35 2.33 5.7 2.66 4 3 C4 3.66 4 4.32 4 5 C4.66 5.33 5.32 5.66 6 6 C5.34 6 4.68 6 4 6 C4 7.65 4 9.3 4 11 C2.35 11.66 0.7 12.32 -1 13 C-0.33333333 10.33333333 0.33333333 7.66666667 1 5 C0.34 5 -0.32 5 -1 5 C-0.67 3.35 -0.34 1.7 0 0 Z " fill="#85B148" transform="translate(10,9)"/>
<path d="M0 0 C1.2684375 0.12375 1.2684375 0.12375 2.5625 0.25 C4.5625 3.25 4.5625 3.25 4.5625 7.25 C3.345625 7.04375 2.12875 6.8375 0.875 6.625 C-2.86381546 6.13704172 -4.97542178 6.71129857 -8.4375 8.25 C-10.75 7.875 -10.75 7.875 -12.4375 7.25 C-9.55570494 5.00860384 -6.57351137 3.11465541 -3.4375 1.25 C-2.4375 0.25 -2.4375 0.25 0 0 Z " fill="#9D937F" transform="translate(108.4375,18.75)"/>
<path d="M0 0 C1.32 0 2.64 0 4 0 C4.33 0.66 4.66 1.32 5 2 C8.02934491 2.65772428 8.02934491 2.65772428 11 3 C11.33 2.34 11.66 1.68 12 1 C12.33 1.99 12.66 2.98 13 4 C12.04287109 4.16435547 12.04287109 4.16435547 11.06640625 4.33203125 C10.24011719 4.49058594 9.41382813 4.64914063 8.5625 4.8125 C7.73878906 4.96332031 6.91507813 5.11414063 6.06640625 5.26953125 C5.38449219 5.51058594 4.70257813 5.75164063 4 6 C3.67 6.99 3.34 7.98 3 9 C1.02 9 -0.96 9 -3 9 C-3 8.01 -3 7.02 -3 6 C-2.01 5.67 -1.02 5.34 0 5 C0 3.35 0 1.7 0 0 Z " fill="#4A4031" transform="translate(52,20)"/>
<path d="M0 0 C0.66 0 1.32 0 2 0 C2.625 3.375 2.625 3.375 3 7 C1 9 1 9 -1.4375 9.375 C-4 9 -4 9 -5.8125 7.1875 C-7 5 -7 5 -7 2 C-4.69 2 -2.38 2 0 2 C0 1.34 0 0.68 0 0 Z " fill="#303227" transform="translate(37,14)"/>
<path d="M0 0 C0.66 0.33 1.32 0.66 2 1 C2.4140625 3.28515625 2.4140625 3.28515625 2.625 6.0625 C2.69976563 6.98160156 2.77453125 7.90070313 2.8515625 8.84765625 C2.90054687 9.55792969 2.94953125 10.26820312 3 11 C4.32 11.33 5.64 11.66 7 12 C7 13.98 7 15.96 7 18 C3.7 18 0.4 18 -3 18 C-2.50886719 17.31550781 -2.01773437 16.63101563 -1.51171875 15.92578125 C0.30470752 12.41026891 0.30658238 10.11721858 0.1875 6.1875 C0.16042969 5.02605469 0.13335938 3.86460938 0.10546875 2.66796875 C0.07066406 1.78753906 0.03585938 0.90710938 0 0 Z " fill="#B3A48A" transform="translate(28,82)"/>
<path d="M0 0 C0.33 0.66 0.66 1.32 1 2 C0.34 2 -0.32 2 -1 2 C-1 2.99 -1 3.98 -1 5 C-1.99 5 -2.98 5 -4 5 C-4 6.65 -4 8.3 -4 10 C-10.93 10 -17.86 10 -25 10 C-25 9.67 -25 9.34 -25 9 C-20.71 9 -16.42 9 -12 9 C-11.67 8.01 -11.34 7.02 -11 6 C-9.00458132 5.31974363 -7.00382009 4.65509503 -5 4 C-2.19195735 1.9884805 -2.19195735 1.9884805 0 0 Z " fill="#1F1811" transform="translate(52,37)"/>
<path d="M0 0 C0.33 0 0.66 0 1 0 C1 1.65 1 3.3 1 5 C2.65 5 4.3 5 6 5 C6 5.33 6 5.66 6 6 C5.113125 6.268125 4.22625 6.53625 3.3125 6.8125 C0.00844187 7.85000607 0.00844187 7.85000607 -2.5625 9.6875 C-5 11 -5 11 -7.8125 10.6875 C-8.534375 10.460625 -9.25625 10.23375 -10 10 C-9.0409375 9.5978125 -9.0409375 9.5978125 -8.0625 9.1875 C-5.66868314 8.11332248 -5.66868314 8.11332248 -5 5 C-5.99 5 -6.98 5 -8 5 C-8 4.34 -8 3.68 -8 3 C-6.865625 2.690625 -5.73125 2.38125 -4.5625 2.0625 C-1.21224901 1.37075469 -1.21224901 1.37075469 0 0 Z " fill="#0F0D0B" transform="translate(37,34)"/>
<path d="M0 0 C2.3125 0.1875 2.3125 0.1875 5 1 C7.60188256 4.31964326 8 5.69316041 8 10 C8.66 10 9.32 10 10 10 C10.66 13.3 11.32 16.6 12 20 C11.01 19.67 10.02 19.34 9 19 C7.83203125 16.1640625 7.83203125 16.1640625 6.8125 12.625 C6.29623047 10.88089844 6.29623047 10.88089844 5.76953125 9.1015625 C5 6 5 6 5 3 C3.02 3 1.04 3 -1 3 C-0.67 2.01 -0.34 1.02 0 0 Z " fill="#746A5C" transform="translate(105,26)"/>
<path d="M0 0 C-0.58419961 3.26345988 -1.30201655 6.13334276 -3 9 C-5.94366533 10.39354369 -8.76734274 10.78991116 -12 11 C-12 10.34 -12 9.68 -12 9 C-11.34 8.67 -10.68 8.34 -10 8 C-9.34227572 4.97065509 -9.34227572 4.97065509 -9 2 C-8.67 2.66 -8.34 3.32 -8 4 C-7.236875 3.34 -6.47375 2.68 -5.6875 2 C-3 0 -3 0 0 0 Z " fill="#453B2E" transform="translate(107,47)"/>
<path d="M0 0 C0.66 0.33 1.32 0.66 2 1 C1.67 1.33 1.34 1.66 1 2 C3.64 2.33 6.28 2.66 9 3 C9 4.32 9 5.64 9 7 C1.375 8.25 1.375 8.25 -2 6 C-2.6875 3.875 -2.6875 3.875 -3 2 C-2.01 1.34 -1.02 0.68 0 0 Z " fill="#B3A68E" transform="translate(84,17)"/>
<path d="M0 0 C8.03501094 -0.78774617 8.03501094 -0.78774617 12.0625 2.5 C12.701875 3.325 13.34125 4.15 14 5 C13.34 5 12.68 5 12 5 C12 5.66 12 6.32 12 7 C9.125 7.125 9.125 7.125 6 7 C5.34 6.34 4.68 5.68 4 5 C4 3.68 4 2.36 4 1 C2.68 0.67 1.36 0.34 0 0 Z " fill="#9BD155" transform="translate(36,10)"/>
<path d="M0 0 C3.25 -0.25 3.25 -0.25 7 0 C8.3743291 1.29103643 9.70896357 2.6256709 11 4 C14.14481791 4.80315654 14.14481791 4.80315654 17 5 C17 5.33 17 5.66 17 6 C8.42857143 6.28571429 8.42857143 6.28571429 5 4 C4.67 6.64 4.34 9.28 4 12 C3.34 11.34 2.68 10.68 2 10 C2 8 2 6 2 4 C1.10168984 1.69769234 1.10168984 1.69769234 0 0 Z " fill="#655A4B" transform="translate(30,62)"/>
<path d="M0 0 C3.3 0 6.6 0 10 0 C8.02 0.99 8.02 0.99 6 2 C8.97 3.485 8.97 3.485 12 5 C11.34 6.32 10.68 7.64 10 9 C9.67 8.01 9.34 7.02 9 6 C8.34 6 7.68 6 7 6 C7.33 7.98 7.66 9.96 8 12 C7.34 11.01 6.68 10.02 6 9 C5.29875 8.175 4.5975 7.35 3.875 6.5 C2 4 2 4 2 1 C1.34 0.67 0.68 0.34 0 0 Z " fill="#A49780" transform="translate(70,17)"/>
<path d="M0 0 C0.33 0.66 0.66 1.32 1 2 C1.66 2 2.32 2 3 2 C3 3.65 3 5.3 3 7 C4.24910156 6.83886719 5.49820313 6.67773438 6.78515625 6.51171875 C12.33999288 5.89693272 17.8531812 5.81623034 23.4375 5.8125 C24.42943359 5.80025391 25.42136719 5.78800781 26.44335938 5.77539062 C27.86165039 5.77249023 27.86165039 5.77249023 29.30859375 5.76953125 C30.58947876 5.76336792 30.58947876 5.76336792 31.89624023 5.75708008 C34 6 34 6 36 8 C24.45 8 12.9 8 1 8 C0.67 5.36 0.34 2.72 0 0 Z " fill="#D7C9A4" transform="translate(68,8)"/>
<path d="M0 0 C1.04892238 1.63631892 2.04906703 3.30485863 3 5 C3.33 5.33 3.66 5.66 4 6 C4.04092937 8.33297433 4.04241723 10.66705225 4 13 C3.01 12.67 2.02 12.34 1 12 C1 11.34 1 10.68 1 10 C1.66 10 2.32 10 3 10 C1.13433512 6.37206002 1.13433512 6.37206002 -2 4 C-1.67 5.32 -1.34 6.64 -1 8 C-3.475 7.01 -3.475 7.01 -6 6 C-5.67 4.35 -5.34 2.7 -5 1 C-2 0 -2 0 0 0 Z " fill="#7F6C44" transform="translate(72,18)"/>
<path d="M0 0 C0.6875 1.75 0.6875 1.75 1 4 C-0.4375 6.25 -0.4375 6.25 -2 8 C-0.68 8.33 0.64 8.66 2 9 C1.67 9.66 1.34 10.32 1 11 C-0.65 11 -2.3 11 -4 11 C-4 10.34 -4 9.68 -4 9 C-9.94 9 -15.88 9 -22 9 C-22 8.67 -22 8.34 -22 8 C-15.73 8 -9.46 8 -3 8 C-3 6.35 -3 4.7 -3 3 C-2.01 3 -1.02 3 0 3 C0 2.01 0 1.02 0 0 Z " fill="#3B3123" transform="translate(51,39)"/>
<path d="M0 0 C0.99 1.32 1.98 2.64 3 4 C3.66 4.66 4.32 5.32 5 6 C5.125 9.125 5.125 9.125 5 12 C5.66 12 6.32 12 7 12 C7 12.99 7 13.98 7 15 C6.01 15 5.02 15 4 15 C3.67 13.68 3.34 12.36 3 11 C2.34 12.32 1.68 13.64 1 15 C0.01 15 -0.98 15 -2 15 C-2 14.34 -2 13.68 -2 13 C-1.34 12.67 -0.68 12.34 0 12 C0 8.04 0 4.08 0 0 Z " fill="#7B7059" transform="translate(116,77)"/>
<path d="M0 0 C0.33 0 0.66 0 1 0 C1.84553115 5.07318687 2.34889626 9.85378013 2 15 C1.01 15.66 0.02 16.32 -1 17 C-1 15.68 -1 14.36 -1 13 C-2.65 12.67 -4.3 12.34 -6 12 C-5.34 11.67 -4.68 11.34 -4 11 C-3.34 11.33 -2.68 11.66 -2 12 C-1.855625 10.7625 -1.71125 9.525 -1.5625 8.25 C-1.21311498 5.43495501 -0.79620634 2.7298503 0 0 Z " fill="#4D4131" transform="translate(92,64)"/>
<path d="M0 0 C0.66 0 1.32 0 2 0 C2 1.65 2 3.3 2 5 C3.65 5 5.3 5 7 5 C7.66 6.32 8.32 7.64 9 9 C7.02 9 5.04 9 3 9 C2.67 8.01 2.34 7.02 2 6 C1.21625 5.87625 0.4325 5.7525 -0.375 5.625 C-3 5 -3 5 -5 3 C-4.360625 2.87625 -3.72125 2.7525 -3.0625 2.625 C-2.0415625 2.315625 -2.0415625 2.315625 -1 2 C-0.67 1.34 -0.34 0.68 0 0 Z " fill="#292A19" transform="translate(54,14)"/>
<path d="M0 0 C0.33 0 0.66 0 1 0 C2.65776005 5.06792735 3.23859717 9.29465204 3.1953125 14.68359375 C3.1924826 15.38396255 3.18965271 16.08433136 3.18673706 16.80592346 C3.17564885 19.0166317 3.15056703 21.22691671 3.125 23.4375 C3.11495546 24.94725972 3.1058322 26.45702588 3.09765625 27.96679688 C3.07574714 31.64466597 3.04129758 35.3222916 3 39 C2.67 39 2.34 39 2 39 C2 29.43 2 19.86 2 10 C1.34 10 0.68 10 0 10 C0 6.7 0 3.4 0 0 Z " fill="#978E7B" transform="translate(121,31)"/>
<path d="M0 0 C1.65 0 3.3 0 5 0 C4.67 0.66 4.34 1.32 4 2 C3.01 2 2.02 2 1 2 C1 4.31 1 6.62 1 9 C1.66 9 2.32 9 3 9 C3 10.65 3 12.3 3 14 C3.66 14 4.32 14 5 14 C5.33 13.01 5.66 12.02 6 11 C5.67 15.95 5.34 20.9 5 26 C4.67 26 4.34 26 4 26 C3.96261719 25.34773438 3.92523437 24.69546875 3.88671875 24.0234375 C3.47353556 18.30336981 3.47353556 18.30336981 1.4375 13 C-0.6253057 8.69501419 -0.25047142 4.69401994 0 0 Z " fill="#96886E" transform="translate(26,67)"/>
<path d="M0 0 C1.9375 0.75 1.9375 0.75 4 2 C4.75 4.125 4.75 4.125 5 6 C4.34 6 3.68 6 3 6 C3.33 6.99 3.66 7.98 4 9 C3.67 9.99 3.34 10.98 3 12 C1.68 12 0.36 12 -1 12 C-2.04449911 8.86650268 -1.93423645 8.01031744 -1 5 C-0.01 5 0.98 5 2 5 C2 4.01 2 3.02 2 2 C1.34 2 0.68 2 0 2 C0 1.34 0 0.68 0 0 Z " fill="#5E4D33" transform="translate(70,22)"/>
<path d="M0 0 C0.33 0 0.66 0 1 0 C1 1.65 1 3.3 1 5 C1.99 5.33 2.98 5.66 4 6 C4 6.99 4 7.98 4 9 C1.36 9 -1.28 9 -4 9 C-4.33 7.68 -4.66 6.36 -5 5 C-4.01 5 -3.02 5 -2 5 C-1.34 3.35 -0.68 1.7 0 0 Z " fill="#574B3A" transform="translate(119,87)"/>
<path d="M0 0 C0.66 0.33 1.32 0.66 2 1 C2 4.3 2 7.6 2 11 C1.01 11 0.02 11 -1 11 C-0.34 12.65 0.32 14.3 1 16 C0.01 15.67 -0.98 15.34 -2 15 C-2.21755666 9.5610835 -2.10428384 5.12919186 0 0 Z " fill="#3A322A" transform="translate(18,23)"/>
<path d="M0 0 C2.31 0.33 4.62 0.66 7 1 C6.34 2.32 5.68 3.64 5 5 C4.01 5 3.02 5 2 5 C2.33 7.31 2.66 9.62 3 12 C1.09598862 10.09598862 0.06479561 8.66574314 -0.19921875 5.953125 C-0.1886578 3.96766727 -0.09915043 1.9830086 0 0 Z " fill="#938166" transform="translate(48,3)"/>
<path d="M0 0 C2.4375 0.125 2.4375 0.125 5 1 C5.66666667 2.66666667 6.33333333 4.33333333 7 6 C9.54775306 6.89386164 9.54775306 6.89386164 12 7 C11.01 7.33 10.02 7.66 9 8 C9 8.66 9 9.32 9 10 C9.66 10.33 10.32 10.66 11 11 C8.03 10.505 8.03 10.505 5 10 C4.67 8.02 4.34 6.04 4 4 C3.34 4 2.68 4 2 4 C1.67 4.66 1.34 5.32 1 6 C1 4.68 1 3.36 1 2 C0.34 1.67 -0.32 1.34 -1 1 C-0.67 0.67 -0.34 0.34 0 0 Z " fill="#86A94F" transform="translate(35,10)"/>
<path d="M0 0 C0.66 0 1.32 0 2 0 C3.76462683 3.08809695 4 4.23312136 4 8 C4.66 8 5.32 8 6 8 C6 8.66 6 9.32 6 10 C6.66 10 7.32 10 8 10 C8 10.99 8 11.98 8 13 C7.34 13 6.68 13 6 13 C6 12.34 6 11.68 6 11 C5.38125 10.9175 4.7625 10.835 4.125 10.75 C2 10 2 10 0.75 8.3125 C-0.1758912 5.45766881 -0.135557 2.98225393 0 0 Z " fill="#493D2C" transform="translate(107,58)"/>
<path d="M0 0 C0.66 0 1.32 0 2 0 C2 0.66 2 1.32 2 2 C2.99 2 3.98 2 5 2 C4.25 4.9375 4.25 4.9375 3 8 C0.875 8.875 0.875 8.875 -1 9 C-1.66 7.68 -2.32 6.36 -3 5 C-1.68 4.67 -0.36 4.34 1 4 C0.67 2.68 0.34 1.36 0 0 Z " fill="#494E3A" transform="translate(20,0)"/>
<path d="M0 0 C1.98 0 3.96 0 6 0 C6 3.96 6 7.92 6 12 C5.67 11.34 5.34 10.68 5 10 C4.34 10 3.68 10 3 10 C3 8.68 3 7.36 3 6 C2.34 6 1.68 6 1 6 C1 5.01 1 4.02 1 3 C2.32 3 3.64 3 5 3 C5 2.34 5 1.68 5 1 C3.35 1 1.7 1 0 1 C0 0.67 0 0.34 0 0 Z " fill="#CAC6A3" transform="translate(10,25)"/>
<path d="M0 0 C0 2.31 0 4.62 0 7 C-0.99 7.33 -1.98 7.66 -3 8 C-3.28875 7.195625 -3.5775 6.39125 -3.875 5.5625 C-4.73262568 2.8673532 -4.73262568 2.8673532 -7 2 C-7 1.34 -7 0.68 -7 0 C-3.86650268 -1.04449911 -3.01031744 -0.93423645 0 0 Z " fill="#404A2C" transform="translate(21,12)"/>
<path d="M0 0 C1.32 0 2.64 0 4 0 C4 1.65 4 3.3 4 5 C3.01 5 2.02 5 1 5 C-0.32 7.31 -1.64 9.62 -3 12 C-3.33 12 -3.66 12 -4 12 C-4 10.35 -4 8.7 -4 7 C-3.34 7 -2.68 7 -2 7 C-2 6.01 -2 5.02 -2 4 C-1.34 4 -0.68 4 0 4 C0 2.68 0 1.36 0 0 Z " fill="#738A50" transform="translate(60,0)"/>
<path d="M0 0 C0.66 0.33 1.32 0.66 2 1 C2 1.99 2 2.98 2 4 C1.01 4.33 0.02 4.66 -1 5 C-0.67 5.598125 -0.34 6.19625 0 6.8125 C1 9 1 9 1 12 C0.34 11.34 -0.32 10.68 -1 10 C-3.65537372 9.43479997 -6.29144713 9.26211802 -9 9 C-8.67 8.34 -8.34 7.68 -8 7 C-7.360625 6.855625 -6.72125 6.71125 -6.0625 6.5625 C-3.61789145 6.13834965 -3.61789145 6.13834965 -2 3 C-1.34 3 -0.68 3 0 3 C0 2.01 0 1.02 0 0 Z " fill="#A0BB6A" transform="translate(19,0)"/>
<path d="M0 0 C2.00720923 0.28674418 4.0085944 0.61866701 6 1 C6 2.65 6 4.3 6 6 C3.69 6 1.38 6 -1 6 C-1.042721 4.33388095 -1.04063832 2.66617115 -1 1 C-0.67 0.67 -0.34 0.34 0 0 Z " fill="#A0D654" transform="translate(23,13)"/>
<path d="M0 0 C0.33 0 0.66 0 1 0 C1.66 3.96 2.32 7.92 3 12 C-1 14 -1 14 -4 14 C-4 13.34 -4 12.68 -4 12 C-3.01 12 -2.02 12 -1 12 C-0.67 8.04 -0.34 4.08 0 0 Z " fill="#73893E" transform="translate(67,7)"/>
<path d="M0 0 C0.99773438 0.02320313 1.99546875 0.04640625 3.0234375 0.0703125 C4.52777344 0.09738281 4.52777344 0.09738281 6.0625 0.125 C6.83335938 0.14820313 7.60421875 0.17140625 8.3984375 0.1953125 C8.3984375 0.5253125 8.3984375 0.8553125 8.3984375 1.1953125 C5.0984375 1.5253125 1.7984375 1.8553125 -1.6015625 2.1953125 C-1.2715625 3.8453125 -0.9415625 5.4953125 -0.6015625 7.1953125 C-1.9215625 7.5253125 -3.2415625 7.8553125 -4.6015625 8.1953125 C-4.7265625 5.3203125 -4.7265625 5.3203125 -4.6015625 2.1953125 C-2.6015625 0.1953125 -2.6015625 0.1953125 0 0 Z " fill="#ABBB8B" transform="translate(36.6015625,8.8046875)"/>
<path d="M0 0 C2.475 0.495 2.475 0.495 5 1 C5.33 2.98 5.66 4.96 6 7 C4.125 6.6875 4.125 6.6875 2 6 C0 3 0 3 0 0 Z " fill="#8E8577" transform="translate(79,43)"/>
<path d="M0 0 C0 2.31 0 4.62 0 7 C-2.97 6.67 -5.94 6.34 -9 6 C-9 5.34 -9 4.68 -9 4 C-8.34 4 -7.68 4 -7 4 C-6.67 3.01 -6.34 2.02 -6 1 C-6 1.66 -6 2.32 -6 3 C-5.195625 2.505 -4.39125 2.01 -3.5625 1.5 C-1 0 -1 0 0 0 Z " fill="#BDAB92" transform="translate(34,3)"/>
<path d="M0 0 C7.59 0 15.18 0 23 0 C23.33 0.99 23.66 1.98 24 3 C22.68 3 21.36 3 20 3 C20 2.34 20 1.68 20 1 C13.4 1 6.8 1 0 1 C0 0.67 0 0.34 0 0 Z " fill="#F5EDC7" transform="translate(35,0)"/>
<path d="M0 0 C0.99 0.495 0.99 0.495 2 1 C2 1.66 2 2.32 2 3 C2.99 2.67 3.98 2.34 5 2 C5.33 3.65 5.66 5.3 6 7 C4.02 7 2.04 7 0 7 C0 4.69 0 2.38 0 0 Z " fill="#75644D" transform="translate(84,82)"/>
<path d="M0 0 C3.63 0.66 7.26 1.32 11 2 C11 2.99 11 3.98 11 5 C9.54052295 4.93993922 8.08220728 4.8511311 6.625 4.75 C5.81289063 4.70359375 5.00078125 4.6571875 4.1640625 4.609375 C3.44992188 4.40828125 2.73578125 4.2071875 2 4 C1.34 2.68 0.68 1.36 0 0 Z " fill="#7C6D53" transform="translate(34,55)"/>
<path d="M0 0 C1.98 0 3.96 0 6 0 C5.67 1.98 5.34 3.96 5 6 C5.99 6.33 6.98 6.66 8 7 C5.6875 7.25 5.6875 7.25 3 7 C1.1875 5.1875 1.1875 5.1875 0 3 C0 2.01 0 1.02 0 0 Z " fill="#56583E" transform="translate(30,16)"/>
<path d="M0 0 C1.4783226 2.95664519 1.06032783 5.74229737 1 9 C1.33 8.34 1.66 7.68 2 7 C2.99 7 3.98 7 5 7 C5 8.32 5 9.64 5 11 C4.01 11 3.02 11 2 11 C1.67 11.66 1.34 12.32 1 13 C-1 11 -1 11 -1.23046875 8.65234375 C-1.21628906 7.75644531 -1.20210937 6.86054688 -1.1875 5.9375 C-1.18105469 5.03902344 -1.17460938 4.14054688 -1.16796875 3.21484375 C-1 1 -1 1 0 0 Z " fill="#57762D" transform="translate(61,8)"/>
<path d="M0 0 C0.66 0 1.32 0 2 0 C3.20568053 4.67201205 3.09382426 9.21496292 3 14 C2.67 14 2.34 14 2 14 C2 12.02 2 10.04 2 8 C0.68 7.67 -0.64 7.34 -2 7 C-1.34 7 -0.68 7 0 7 C-0.185625 6.401875 -0.37125 5.80375 -0.5625 5.1875 C-1 3 -1 3 0 0 Z " fill="#817259" transform="translate(33,86)"/>
<path d="M0 0 C2.64 0.33 5.28 0.66 8 1 C8 1.33 8 1.66 8 2 C6.35 2.33 4.7 2.66 3 3 C2.67 5.31 2.34 7.62 2 10 C1.34 10 0.68 10 0 10 C0 6.7 0 3.4 0 0 Z " fill="#35291C" transform="translate(41,70)"/>
<path d="M0 0 C1.32 0 2.64 0 4 0 C4 0.99 4 1.98 4 3 C5.65 3 7.3 3 9 3 C9 3.66 9 4.32 9 5 C5.7 5 2.4 5 -1 5 C-0.34 4.67 0.32 4.34 1 4 C0.67 2.68 0.34 1.36 0 0 Z " fill="#44341F" transform="translate(41,60)"/>
<path d="M0 0 C-0.66 1.98 -1.32 3.96 -2 6 C-3.65 6.33 -5.3 6.66 -7 7 C-6.75 4.625 -6.75 4.625 -6 2 C-3.84898936 0.54286376 -2.59713506 0 0 0 Z " fill="#5D4728" transform="translate(52,56)"/>
<path d="M0 0 C2.64 0.33 5.28 0.66 8 1 C7.67 1.99 7.34 2.98 7 4 C5.02 4 3.04 4 1 4 C0.67 4.66 0.34 5.32 0 6 C0 4.02 0 2.04 0 0 Z " fill="#322C27" transform="translate(24,39)"/>
<path d="M0 0 C2 1 2 1 2.6875 2.625 C3.115033 5.87425079 2.55596842 8.78773804 2 12 C1.01 12.33 0.02 12.66 -1 13 C-0.33333333 10.33333333 0.33333333 7.66666667 1 5 C0.34 5 -0.32 5 -1 5 C-0.67 3.35 -0.34 1.7 0 0 Z " fill="#9AD644" transform="translate(10,9)"/>
<path d="M0 0 C0.33 0 0.66 0 1 0 C2.99118241 4.97011673 3.24845695 9.12333135 3.125 14.375 C3.11597656 15.11105469 3.10695313 15.84710938 3.09765625 16.60546875 C3.07430144 18.4037888 3.03843836 20.20193911 3 22 C2.67 22 2.34 22 2 22 C2 17.38 2 12.76 2 8 C1.34 8 0.68 8 0 8 C0 5.36 0 2.72 0 0 Z " fill="#E7DFBC" transform="translate(69,78)"/>
<path d="M0 0 C1.32 0.33 2.64 0.66 4 1 C3.67 1.99 3.34 2.98 3 4 C-0.63 4 -4.26 4 -8 4 C-6 2 -6 2 -2.875 1.875 C-1.92625 1.91625 -0.9775 1.9575 0 2 C0 1.34 0 0.68 0 0 Z " fill="#554D3E" transform="translate(104,54)"/>
<path d="M0 0 C0.33 0.66 0.66 1.32 1 2 C0.67 2.99 0.34 3.98 0 5 C0.66 5 1.32 5 2 5 C1.44271087 8.34373475 0.64826111 11.03312999 -1 14 C-1.94602608 10.9148254 -2.01578237 8.50740993 -1.625 5.3125 C-1.53476563 4.52488281 -1.44453125 3.73726562 -1.3515625 2.92578125 C-1 1 -1 1 0 0 Z " fill="#BCDF70" transform="translate(9,9)"/>
<path d="M0 0 C0.99 0 1.98 0 3 0 C3.66 2.31 4.32 4.62 5 7 C4.01 7.33 3.02 7.66 2 8 C-0.1519437 4.77208445 -0.20086443 3.71599191 0 0 Z " fill="#8D7E66" transform="translate(84,77)"/>
<path d="M0 0 C0.66 0 1.32 0 2 0 C2 0.99 2 1.98 2 3 C2.99 2.67 3.98 2.34 5 2 C4.6875 3.875 4.6875 3.875 4 6 C3.01 6.66 2.02 7.32 1 8 C1 7.34 1 6.68 1 6 C0.34 6 -0.32 6 -1 6 C-0.67 4.02 -0.34 2.04 0 0 Z " fill="#4A3E2F" transform="translate(118,68)"/>
<path d="M0 0 C0.309375 0.639375 0.61875 1.27875 0.9375 1.9375 C1.8345163 3.93610821 1.8345163 3.93610821 3 5 C3.1875 8.4375 3.1875 8.4375 3 12 C2.34 12.66 1.68 13.32 1 14 C0.04738513 9.23692563 -0.08333357 4.8333472 0 0 Z " fill="#8E846F" transform="translate(93,63)"/>
<path d="M0 0 C2 3 2 3 2 6 C1.01 6 0.02 6 -1 6 C-1 6.66 -1 7.32 -1 8 C-2.32 7.34 -3.64 6.68 -5 6 C-5 5.34 -5 4.68 -5 4 C-4.01 4 -3.02 4 -2 4 C-1.34 2.68 -0.68 1.36 0 0 Z " fill="#0A0404" transform="translate(22,31)"/>
<path d="M0 0 C0.33 0 0.66 0 1 0 C1 1.98 1 3.96 1 6 C-1.31 6.66 -3.62 7.32 -6 8 C-4.6875 5.5 -4.6875 5.5 -3 3 C-2.01 3 -1.02 3 0 3 C0 2.01 0 1.02 0 0 Z " fill="#786B5B" transform="translate(84,60)"/>
<path d="M0 0 C3.3 0.33 6.6 0.66 10 1 C8.515 2.485 8.515 2.485 7 4 C6.01 4 5.02 4 4 4 C4 4.66 4 5.32 4 6 C3.34 6 2.68 6 2 6 C2.33 4.68 2.66 3.36 3 2 C2.01 2 1.02 2 0 2 C0 1.34 0 0.68 0 0 Z " fill="#A89679" transform="translate(22,0)"/>
<path d="M0 0 C0.33 0 0.66 0 1 0 C1.33 2.31 1.66 4.62 2 7 C3.65 7.33 5.3 7.66 7 8 C7 8.66 7 9.32 7 10 C5.68 9.67 4.36 9.34 3 9 C3 9.66 3 10.32 3 11 C2.34 11 1.68 11 1 11 C0.67 7.37 0.34 3.74 0 0 Z " fill="#746341" transform="translate(25,50)"/>
<path d="M0 0 C0.99 0.33 1.98 0.66 3 1 C3.33 2.98 3.66 4.96 4 7 C1.525 6.01 1.525 6.01 -1 5 C-0.67 3.35 -0.34 1.7 0 0 Z " fill="#7B7357" transform="translate(67,19)"/>
<path d="M0 0 C3.3 0 6.6 0 10 0 C8.02 0.99 8.02 0.99 6 2 C4.73195434 4.0335948 4.73195434 4.0335948 4 6 C3.34 5.34 2.68 4.68 2 4 C2 3.01 2 2.02 2 1 C1.34 0.67 0.68 0.34 0 0 Z " fill="#A79271" transform="translate(70,17)"/>
<path d="M0 0 C0.33 0.66 0.66 1.32 1 2 C1.66 2 2.32 2 3 2 C3 3.65 3 5.3 3 7 C5.31 7 7.62 7 10 7 C10 7.33 10 7.66 10 8 C7.03 8 4.06 8 1 8 C0.67 5.36 0.34 2.72 0 0 Z " fill="#DCDAAE" transform="translate(68,8)"/>
<path d="M0 0 C1.093125 0.226875 2.18625 0.45375 3.3125 0.6875 C1.3125 2.6875 1.3125 2.6875 -0.6328125 2.8828125 C-2.65104167 2.81770833 -4.66927083 2.75260417 -6.6875 2.6875 C-4.58035839 -0.41123767 -3.86755884 -0.32775922 0 0 Z " fill="#382E25" transform="translate(63.6875,69.3125)"/>
<path d="M0 0 C2.31 0 4.62 0 7 0 C7.33 1.32 7.66 2.64 8 4 C5.23723823 3.47731534 2.6739124 2.89130413 0 2 C0 1.34 0 0.68 0 0 Z " fill="#887962" transform="translate(31,49)"/>
<path d="M0 0 C1.32 0.33 2.64 0.66 4 1 C4 2.65 4 4.3 4 6 C2.68 5.67 1.36 5.34 0 5 C0 3.35 0 1.7 0 0 Z " fill="#9E9F94" transform="translate(14,15)"/>
<path d="M0 0 C0.33 0 0.66 0 1 0 C1.33 2.97 1.66 5.94 2 9 C1.34 9 0.68 9 0 9 C-0.66 9.66 -1.32 10.32 -2 11 C-1.125 3.375 -1.125 3.375 0 0 Z " fill="#574B3D" transform="translate(123,70)"/>
<path d="M0 0 C1.32 0 2.64 0 4 0 C4 0.99 4 1.98 4 3 C1.42786866 4.61949011 0.32330841 5.04408751 -2.75 4.625 C-3.4925 4.41875 -4.235 4.2125 -5 4 C-4.360625 3.71125 -3.72125 3.4225 -3.0625 3.125 C-0.84793921 2.17176549 -0.84793921 2.17176549 0 0 Z " fill="#1C1614" transform="translate(32,40)"/>
<path d="M0 0 C0.99 0 1.98 0 3 0 C3.33 2.31 3.66 4.62 4 7 C3.01 7.495 3.01 7.495 2 8 C1.67 6.35 1.34 4.7 1 3 C0.67 3.99 0.34 4.98 0 6 C0 4.02 0 2.04 0 0 Z " fill="#867F70" transform="translate(117,29)"/>
<path d="M0 0 C3.63 0.66 7.26 1.32 11 2 C7.5647952 4.29013653 6.014669 4.17842973 2 4 C2 3.34 2 2.68 2 2 C1.34 2 0.68 2 0 2 C0 1.34 0 0.68 0 0 Z " fill="#3F362D" transform="translate(43,29)"/>
<path d="M0 0 C0.33 0.99 0.66 1.98 1 3 C2.65 2.67 4.3 2.34 6 2 C6 2.66 6 3.32 6 4 C4.576875 4.4640625 4.576875 4.4640625 3.125 4.9375 C0.13919592 5.87394742 0.13919592 5.87394742 -2 7 C-2.33 6.01 -2.66 5.02 -3 4 C-2.34 3.67 -1.68 3.34 -1 3 C-0.67 2.01 -0.34 1.02 0 0 Z " fill="#6C8645" transform="translate(21,16)"/>
<path d="M0 0 C-0.66 0.66 -1.32 1.32 -2 2 C-1.67 2.66 -1.34 3.32 -1 4 C-3.64 4 -6.28 4 -9 4 C-9 3.34 -9 2.68 -9 2 C-5.86501708 0.14223235 -3.62528568 -0.20140476 0 0 Z " fill="#4F582D" transform="translate(53,16)"/>
<path d="M0 0 C2.0625 0.4375 2.0625 0.4375 4 1 C4 1.66 4 2.32 4 3 C1.7272325 4.49524178 -0.5679943 5.78399715 -3 7 C-1.125 1.125 -1.125 1.125 0 0 Z " fill="#404938" transform="translate(61,4)"/>
<path d="M0 0 C0.93423645 3.01031744 1.04449911 3.86650268 0 7 C-0.99 7 -1.98 7 -3 7 C-2.25 2.25 -2.25 2.25 0 0 Z " fill="#74664E" transform="translate(83,93)"/>
<path d="M0 0 C0.33 0 0.66 0 1 0 C0.67 4.95 0.34 9.9 0 15 C-0.33 15 -0.66 15 -1 15 C-1.33 11.04 -1.66 7.08 -2 3 C-1.34 3 -0.68 3 0 3 C0 2.01 0 1.02 0 0 Z " fill="#8B7C62" transform="translate(31,78)"/>
<path d="M0 0 C0.66 0 1.32 0 2 0 C2 0.66 2 1.32 2 2 C2.66 2 3.32 2 4 2 C4 2.66 4 3.32 4 4 C4.66 4 5.32 4 6 4 C6 4.99 6 5.98 6 7 C5.34 7 4.68 7 4 7 C4 6.34 4 5.68 4 5 C3.01 5 2.02 5 1 5 C0.67 3.35 0.34 1.7 0 0 Z " fill="#352719" transform="translate(109,64)"/>
<path d="M0 0 C-1.24420647 0.5345256 -2.49570936 1.05208611 -3.75 1.5625 C-4.44609375 1.85253906 -5.1421875 2.14257812 -5.859375 2.44140625 C-8.30012784 3.07831803 -9.6403655 2.80248831 -12 2 C-8.51900375 -1.48099625 -4.51091121 -1.29859565 0 0 Z " fill="#9A8F7D" transform="translate(108,24)"/>
<path d="M0 0 C0.33 1.65 0.66 3.3 1 5 C0.01 5.495 0.01 5.495 -1 6 C-1 5.01 -1 4.02 -1 3 C-1.66 3 -2.32 3 -3 3 C-3 2.34 -3 1.68 -3 1 C-3.99 0.67 -4.98 0.34 -6 0 C-3.50907189 -1.24546405 -2.58919267 -0.7767578 0 0 Z " fill="#58513E" transform="translate(52,20)"/>
<path d="M0 0 C0.33 0 0.66 0 1 0 C1.05422947 1.4370809 1.09289723 2.87475462 1.125 4.3125 C1.14820313 5.11300781 1.17140625 5.91351563 1.1953125 6.73828125 C1 9 1 9 -1 12 C-1.33 9.69 -1.66 7.38 -2 5 C-1.34 5 -0.68 5 0 5 C0 3.35 0 1.7 0 0 Z " fill="#EDF0BB" transform="translate(7,10)"/>
<path d="M0 0 C2.64 0.33 5.28 0.66 8 1 C8 1.66 8 2.32 8 3 C5.36 3 2.72 3 0 3 C0 2.01 0 1.02 0 0 Z " fill="#2C241E" transform="translate(115,93)"/>
<path d="M0 0 C0.99 0.33 1.98 0.66 3 1 C1.6875 3.5 1.6875 3.5 0 6 C-0.99 6 -1.98 6 -3 6 C-1.125 1.125 -1.125 1.125 0 0 Z " fill="#443014" transform="translate(53,55)"/>
<path d="M0 0 C0.66 0 1.32 0 2 0 C1.30058404 3.14737182 0.23921302 6.02588876 -1 9 C-1.33 8.34 -1.66 7.68 -2 7 C-2.66 6.67 -3.32 6.34 -4 6 C-3.01 6 -2.02 6 -1 6 C-1.020625 5.195625 -1.04125 4.39125 -1.0625 3.5625 C-1 1 -1 1 0 0 Z " fill="#1C1210" transform="translate(21,28)"/>
<path d="M0 0 C0.99 0.33 1.98 0.66 3 1 C3 1.66 3 2.32 3 3 C-1.43076923 5.09230769 -1.43076923 5.09230769 -4.3125 4.625 C-4.869375 4.41875 -5.42625 4.2125 -6 4 C-5.195625 3.525625 -4.39125 3.05125 -3.5625 2.5625 C-1.15246512 1.23099846 -1.15246512 1.23099846 0 0 Z " fill="#A59A85" transform="translate(106,19)"/>
<path d="M0 0 C0.33 0.66 0.66 1.32 1 2 C1.99 1.67 2.98 1.34 4 1 C3.67 2.65 3.34 4.3 3 6 C2.67 5.34 2.34 4.68 2 4 C1.34 4 0.68 4 0 4 C-0.33 4.66 -0.66 5.32 -1 6 C-1.042721 4.33388095 -1.04063832 2.66617115 -1 1 C-0.67 0.67 -0.34 0.34 0 0 Z " fill="#40452F" transform="translate(54,10)"/>
<path d="M0 0 C0.99 0 1.98 0 3 0 C3 0.99 3 1.98 3 3 C2.34 3 1.68 3 1 3 C1 4.65 1 6.3 1 8 C0.34 7.34 -0.32 6.68 -1 6 C-0.625 2.875 -0.625 2.875 0 0 Z " fill="#5D5747" transform="translate(55,4)"/>
<path d="M0 0 C1.65 1.65 3.3 3.3 5 5 C4.67 5.66 4.34 6.32 4 7 C2.68 6.34 1.36 5.68 0 5 C0 3.35 0 1.7 0 0 Z " fill="#DED8B9" transform="translate(109,68)"/>
<path d="M0 0 C3.69900008 0.88776002 7.34550461 1.94581864 11 3 C11 3.33 11 3.66 11 4 C5.62694301 4.35233161 5.62694301 4.35233161 3 4 C1 2 1 2 0 0 Z " fill="#6B6658" transform="translate(36,64)"/>
<path d="M0 0 C0.33 0.99 0.66 1.98 1 3 C-0.375 4.5 -0.375 4.5 -2 6 C-2.66 6 -3.32 6 -4 6 C-4.33 6.66 -4.66 7.32 -5 8 C-5 6.68 -5 5.36 -5 4 C-4.01 4 -3.02 4 -2 4 C-1.34 2.68 -0.68 1.36 0 0 Z " fill="#4E4237" transform="translate(92,51)"/>
<path d="M0 0 C1.32 0 2.64 0 4 0 C3.6875 1.9375 3.6875 1.9375 3 4 C2.01 4.33 1.02 4.66 0 5 C0 3.35 0 1.7 0 0 Z " fill="#46392A" transform="translate(54,32)"/>
<path d="M0 0 C0.66 0 1.32 0 2 0 C1.67 1.65 1.34 3.3 1 5 C-0.98 5.33 -2.96 5.66 -5 6 C-4.67 5.34 -4.34 4.68 -4 4 C-3.01 4 -2.02 4 -1 4 C-0.67 2.68 -0.34 1.36 0 0 Z " fill="#637138" transform="translate(47,21)"/>
<path d="M0 0 C0.66 0 1.32 0 2 0 C2 0.66 2 1.32 2 2 C2.99 2 3.98 2 5 2 C4.34 3.98 3.68 5.96 3 8 C1.58622659 5.36095629 0.62759865 2.92879371 0 0 Z " fill="#5A5543" transform="translate(20,0)"/>
</svg>
